<mxfile host="app.diagrams.net" modified="2021-11-27T18:18:47.408Z" agent="5.0 (Windows)" etag="_v_F2NfgKgzootEfjJIj" version="15.8.6" type="github" pages="8">
  <diagram id="Ber-renja4PMOwXce2-F" name="Class diagram">
    <mxGraphModel dx="2462" dy="1682" grid="0" gridSize="10" guides="1" tooltips="1" connect="1" arrows="1" fold="1" page="0" pageScale="1" pageWidth="827" pageHeight="1169" background="none" math="0" shadow="0">
      <root>
        <mxCell id="0" />
        <mxCell id="1" parent="0" />
        <mxCell id="VnNv1GlPoRaZdp6luFFu-25" style="edgeStyle=orthogonalEdgeStyle;rounded=0;orthogonalLoop=1;jettySize=auto;html=1;endArrow=diamondThin;endFill=1;endSize=12;" parent="1" source="VnNv1GlPoRaZdp6luFFu-1" target="VnNv1GlPoRaZdp6luFFu-5" edge="1">
          <mxGeometry relative="1" as="geometry" />
        </mxCell>
        <mxCell id="VnNv1GlPoRaZdp6luFFu-1" value="Generator" style="swimlane;fontStyle=1;align=center;verticalAlign=top;childLayout=stackLayout;horizontal=1;startSize=26;horizontalStack=0;resizeParent=1;resizeParentMax=0;resizeLast=0;collapsible=1;marginBottom=0;" parent="1" vertex="1">
          <mxGeometry x="290" y="-74" width="160" height="86" as="geometry" />
        </mxCell>
        <mxCell id="VnNv1GlPoRaZdp6luFFu-2" value="+ field: type" style="text;strokeColor=none;fillColor=none;align=left;verticalAlign=top;spacingLeft=4;spacingRight=4;overflow=hidden;rotatable=0;points=[[0,0.5],[1,0.5]];portConstraint=eastwest;" parent="VnNv1GlPoRaZdp6luFFu-1" vertex="1">
          <mxGeometry y="26" width="160" height="26" as="geometry" />
        </mxCell>
        <mxCell id="VnNv1GlPoRaZdp6luFFu-3" value="" style="line;strokeWidth=1;fillColor=none;align=left;verticalAlign=middle;spacingTop=-1;spacingLeft=3;spacingRight=3;rotatable=0;labelPosition=right;points=[];portConstraint=eastwest;" parent="VnNv1GlPoRaZdp6luFFu-1" vertex="1">
          <mxGeometry y="52" width="160" height="8" as="geometry" />
        </mxCell>
        <mxCell id="VnNv1GlPoRaZdp6luFFu-4" value="+ method(type): type" style="text;strokeColor=none;fillColor=none;align=left;verticalAlign=top;spacingLeft=4;spacingRight=4;overflow=hidden;rotatable=0;points=[[0,0.5],[1,0.5]];portConstraint=eastwest;" parent="VnNv1GlPoRaZdp6luFFu-1" vertex="1">
          <mxGeometry y="60" width="160" height="26" as="geometry" />
        </mxCell>
        <mxCell id="VnNv1GlPoRaZdp6luFFu-68" style="edgeStyle=orthogonalEdgeStyle;rounded=0;orthogonalLoop=1;jettySize=auto;html=1;endArrow=diamondThin;endFill=1;endSize=12;" parent="1" source="VnNv1GlPoRaZdp6luFFu-5" target="VnNv1GlPoRaZdp6luFFu-33" edge="1">
          <mxGeometry relative="1" as="geometry">
            <Array as="points">
              <mxPoint x="130" y="-231" />
            </Array>
          </mxGeometry>
        </mxCell>
        <mxCell id="VnNv1GlPoRaZdp6luFFu-5" value="AlgorithmController" style="swimlane;fontStyle=1;align=center;verticalAlign=top;childLayout=stackLayout;horizontal=1;startSize=26;horizontalStack=0;resizeParent=1;resizeParentMax=0;resizeLast=0;collapsible=1;marginBottom=0;" parent="1" vertex="1">
          <mxGeometry x="380" y="-274" width="160" height="86" as="geometry" />
        </mxCell>
        <mxCell id="VnNv1GlPoRaZdp6luFFu-6" value="+ field: type" style="text;strokeColor=none;fillColor=none;align=left;verticalAlign=top;spacingLeft=4;spacingRight=4;overflow=hidden;rotatable=0;points=[[0,0.5],[1,0.5]];portConstraint=eastwest;" parent="VnNv1GlPoRaZdp6luFFu-5" vertex="1">
          <mxGeometry y="26" width="160" height="26" as="geometry" />
        </mxCell>
        <mxCell id="VnNv1GlPoRaZdp6luFFu-7" value="" style="line;strokeWidth=1;fillColor=none;align=left;verticalAlign=middle;spacingTop=-1;spacingLeft=3;spacingRight=3;rotatable=0;labelPosition=right;points=[];portConstraint=eastwest;" parent="VnNv1GlPoRaZdp6luFFu-5" vertex="1">
          <mxGeometry y="52" width="160" height="8" as="geometry" />
        </mxCell>
        <mxCell id="VnNv1GlPoRaZdp6luFFu-8" value="+ method(type): type" style="text;strokeColor=none;fillColor=none;align=left;verticalAlign=top;spacingLeft=4;spacingRight=4;overflow=hidden;rotatable=0;points=[[0,0.5],[1,0.5]];portConstraint=eastwest;" parent="VnNv1GlPoRaZdp6luFFu-5" vertex="1">
          <mxGeometry y="60" width="160" height="26" as="geometry" />
        </mxCell>
        <mxCell id="VnNv1GlPoRaZdp6luFFu-28" style="edgeStyle=orthogonalEdgeStyle;rounded=0;orthogonalLoop=1;jettySize=auto;html=1;endArrow=diamondThin;endFill=1;endSize=12;" parent="1" source="VnNv1GlPoRaZdp6luFFu-9" target="VnNv1GlPoRaZdp6luFFu-21" edge="1">
          <mxGeometry relative="1" as="geometry">
            <mxPoint x="860" y="-34" as="targetPoint" />
            <Array as="points">
              <mxPoint x="680" y="106" />
              <mxPoint x="680" y="106" />
            </Array>
          </mxGeometry>
        </mxCell>
        <mxCell id="VnNv1GlPoRaZdp6luFFu-9" value="PreProcessor" style="swimlane;fontStyle=1;align=center;verticalAlign=top;childLayout=stackLayout;horizontal=1;startSize=26;horizontalStack=0;resizeParent=1;resizeParentMax=0;resizeLast=0;collapsible=1;marginBottom=0;" parent="1" vertex="1">
          <mxGeometry x="600" y="136" width="160" height="86" as="geometry" />
        </mxCell>
        <mxCell id="VnNv1GlPoRaZdp6luFFu-10" value="+ field: type" style="text;strokeColor=none;fillColor=none;align=left;verticalAlign=top;spacingLeft=4;spacingRight=4;overflow=hidden;rotatable=0;points=[[0,0.5],[1,0.5]];portConstraint=eastwest;" parent="VnNv1GlPoRaZdp6luFFu-9" vertex="1">
          <mxGeometry y="26" width="160" height="26" as="geometry" />
        </mxCell>
        <mxCell id="VnNv1GlPoRaZdp6luFFu-11" value="" style="line;strokeWidth=1;fillColor=none;align=left;verticalAlign=middle;spacingTop=-1;spacingLeft=3;spacingRight=3;rotatable=0;labelPosition=right;points=[];portConstraint=eastwest;" parent="VnNv1GlPoRaZdp6luFFu-9" vertex="1">
          <mxGeometry y="52" width="160" height="8" as="geometry" />
        </mxCell>
        <mxCell id="VnNv1GlPoRaZdp6luFFu-12" value="+ method(type): type" style="text;strokeColor=none;fillColor=none;align=left;verticalAlign=top;spacingLeft=4;spacingRight=4;overflow=hidden;rotatable=0;points=[[0,0.5],[1,0.5]];portConstraint=eastwest;" parent="VnNv1GlPoRaZdp6luFFu-9" vertex="1">
          <mxGeometry y="60" width="160" height="26" as="geometry" />
        </mxCell>
        <mxCell id="VnNv1GlPoRaZdp6luFFu-27" style="edgeStyle=orthogonalEdgeStyle;rounded=0;orthogonalLoop=1;jettySize=auto;html=1;endArrow=diamondThin;endFill=1;endSize=12;" parent="1" source="VnNv1GlPoRaZdp6luFFu-13" target="VnNv1GlPoRaZdp6luFFu-21" edge="1">
          <mxGeometry relative="1" as="geometry">
            <mxPoint x="890" y="-24" as="targetPoint" />
            <Array as="points">
              <mxPoint x="990" y="76" />
              <mxPoint x="880" y="76" />
            </Array>
          </mxGeometry>
        </mxCell>
        <mxCell id="VnNv1GlPoRaZdp6luFFu-13" value="Validator" style="swimlane;fontStyle=1;align=center;verticalAlign=top;childLayout=stackLayout;horizontal=1;startSize=26;horizontalStack=0;resizeParent=1;resizeParentMax=0;resizeLast=0;collapsible=1;marginBottom=0;" parent="1" vertex="1">
          <mxGeometry x="910" y="146" width="160" height="86" as="geometry" />
        </mxCell>
        <mxCell id="VnNv1GlPoRaZdp6luFFu-14" value="+ field: type" style="text;strokeColor=none;fillColor=none;align=left;verticalAlign=top;spacingLeft=4;spacingRight=4;overflow=hidden;rotatable=0;points=[[0,0.5],[1,0.5]];portConstraint=eastwest;" parent="VnNv1GlPoRaZdp6luFFu-13" vertex="1">
          <mxGeometry y="26" width="160" height="26" as="geometry" />
        </mxCell>
        <mxCell id="VnNv1GlPoRaZdp6luFFu-15" value="" style="line;strokeWidth=1;fillColor=none;align=left;verticalAlign=middle;spacingTop=-1;spacingLeft=3;spacingRight=3;rotatable=0;labelPosition=right;points=[];portConstraint=eastwest;" parent="VnNv1GlPoRaZdp6luFFu-13" vertex="1">
          <mxGeometry y="52" width="160" height="8" as="geometry" />
        </mxCell>
        <mxCell id="VnNv1GlPoRaZdp6luFFu-16" value="+ method(type): type" style="text;strokeColor=none;fillColor=none;align=left;verticalAlign=top;spacingLeft=4;spacingRight=4;overflow=hidden;rotatable=0;points=[[0,0.5],[1,0.5]];portConstraint=eastwest;" parent="VnNv1GlPoRaZdp6luFFu-13" vertex="1">
          <mxGeometry y="60" width="160" height="26" as="geometry" />
        </mxCell>
        <mxCell id="VnNv1GlPoRaZdp6luFFu-29" style="edgeStyle=orthogonalEdgeStyle;rounded=0;orthogonalLoop=1;jettySize=auto;html=1;endArrow=diamondThin;endFill=1;endSize=12;" parent="1" source="VnNv1GlPoRaZdp6luFFu-17" target="VnNv1GlPoRaZdp6luFFu-5" edge="1">
          <mxGeometry relative="1" as="geometry" />
        </mxCell>
        <mxCell id="VnNv1GlPoRaZdp6luFFu-17" value="WallNumberApplier" style="swimlane;fontStyle=1;align=center;verticalAlign=top;childLayout=stackLayout;horizontal=1;startSize=26;horizontalStack=0;resizeParent=1;resizeParentMax=0;resizeLast=0;collapsible=1;marginBottom=0;" parent="1" vertex="1">
          <mxGeometry x="740" y="-274" width="160" height="86" as="geometry" />
        </mxCell>
        <mxCell id="VnNv1GlPoRaZdp6luFFu-18" value="+ field: type" style="text;strokeColor=none;fillColor=none;align=left;verticalAlign=top;spacingLeft=4;spacingRight=4;overflow=hidden;rotatable=0;points=[[0,0.5],[1,0.5]];portConstraint=eastwest;" parent="VnNv1GlPoRaZdp6luFFu-17" vertex="1">
          <mxGeometry y="26" width="160" height="26" as="geometry" />
        </mxCell>
        <mxCell id="VnNv1GlPoRaZdp6luFFu-19" value="" style="line;strokeWidth=1;fillColor=none;align=left;verticalAlign=middle;spacingTop=-1;spacingLeft=3;spacingRight=3;rotatable=0;labelPosition=right;points=[];portConstraint=eastwest;" parent="VnNv1GlPoRaZdp6luFFu-17" vertex="1">
          <mxGeometry y="52" width="160" height="8" as="geometry" />
        </mxCell>
        <mxCell id="VnNv1GlPoRaZdp6luFFu-20" value="+ method(type): type" style="text;strokeColor=none;fillColor=none;align=left;verticalAlign=top;spacingLeft=4;spacingRight=4;overflow=hidden;rotatable=0;points=[[0,0.5],[1,0.5]];portConstraint=eastwest;" parent="VnNv1GlPoRaZdp6luFFu-17" vertex="1">
          <mxGeometry y="60" width="160" height="26" as="geometry" />
        </mxCell>
        <mxCell id="VnNv1GlPoRaZdp6luFFu-26" style="edgeStyle=orthogonalEdgeStyle;rounded=0;orthogonalLoop=1;jettySize=auto;html=1;endArrow=diamondThin;endFill=1;endSize=12;" parent="1" source="VnNv1GlPoRaZdp6luFFu-21" target="VnNv1GlPoRaZdp6luFFu-5" edge="1">
          <mxGeometry relative="1" as="geometry">
            <Array as="points">
              <mxPoint x="520" y="-41" />
            </Array>
          </mxGeometry>
        </mxCell>
        <mxCell id="VnNv1GlPoRaZdp6luFFu-30" style="edgeStyle=orthogonalEdgeStyle;rounded=0;orthogonalLoop=1;jettySize=auto;html=1;endArrow=classic;endFill=1;endSize=12;" parent="1" source="VnNv1GlPoRaZdp6luFFu-21" target="VnNv1GlPoRaZdp6luFFu-17" edge="1">
          <mxGeometry relative="1" as="geometry">
            <Array as="points">
              <mxPoint x="720" y="-136" />
              <mxPoint x="820" y="-136" />
            </Array>
          </mxGeometry>
        </mxCell>
        <mxCell id="VnNv1GlPoRaZdp6luFFu-21" value="PuzzleSolver" style="swimlane;fontStyle=1;align=center;verticalAlign=top;childLayout=stackLayout;horizontal=1;startSize=26;horizontalStack=0;resizeParent=1;resizeParentMax=0;resizeLast=0;collapsible=1;marginBottom=0;" parent="1" vertex="1">
          <mxGeometry x="600" y="-84" width="160" height="86" as="geometry" />
        </mxCell>
        <mxCell id="VnNv1GlPoRaZdp6luFFu-22" value="+ field: type" style="text;strokeColor=none;fillColor=none;align=left;verticalAlign=top;spacingLeft=4;spacingRight=4;overflow=hidden;rotatable=0;points=[[0,0.5],[1,0.5]];portConstraint=eastwest;" parent="VnNv1GlPoRaZdp6luFFu-21" vertex="1">
          <mxGeometry y="26" width="160" height="26" as="geometry" />
        </mxCell>
        <mxCell id="VnNv1GlPoRaZdp6luFFu-23" value="" style="line;strokeWidth=1;fillColor=none;align=left;verticalAlign=middle;spacingTop=-1;spacingLeft=3;spacingRight=3;rotatable=0;labelPosition=right;points=[];portConstraint=eastwest;" parent="VnNv1GlPoRaZdp6luFFu-21" vertex="1">
          <mxGeometry y="52" width="160" height="8" as="geometry" />
        </mxCell>
        <mxCell id="VnNv1GlPoRaZdp6luFFu-24" value="+ method(type): type" style="text;strokeColor=none;fillColor=none;align=left;verticalAlign=top;spacingLeft=4;spacingRight=4;overflow=hidden;rotatable=0;points=[[0,0.5],[1,0.5]];portConstraint=eastwest;" parent="VnNv1GlPoRaZdp6luFFu-21" vertex="1">
          <mxGeometry y="60" width="160" height="26" as="geometry" />
        </mxCell>
        <mxCell id="VnNv1GlPoRaZdp6luFFu-32" style="edgeStyle=orthogonalEdgeStyle;rounded=0;orthogonalLoop=1;jettySize=auto;html=1;endArrow=classic;endFill=1;endSize=12;" parent="1" source="VnNv1GlPoRaZdp6luFFu-10" target="VnNv1GlPoRaZdp6luFFu-13" edge="1">
          <mxGeometry relative="1" as="geometry" />
        </mxCell>
        <mxCell id="VnNv1GlPoRaZdp6luFFu-33" value="GameController" style="swimlane;fontStyle=1;align=center;verticalAlign=top;childLayout=stackLayout;horizontal=1;startSize=26;horizontalStack=0;resizeParent=1;resizeParentMax=0;resizeLast=0;collapsible=1;marginBottom=0;" parent="1" vertex="1">
          <mxGeometry x="10" y="50" width="160" height="86" as="geometry" />
        </mxCell>
        <mxCell id="VnNv1GlPoRaZdp6luFFu-34" value="+ field: type" style="text;strokeColor=none;fillColor=none;align=left;verticalAlign=top;spacingLeft=4;spacingRight=4;overflow=hidden;rotatable=0;points=[[0,0.5],[1,0.5]];portConstraint=eastwest;" parent="VnNv1GlPoRaZdp6luFFu-33" vertex="1">
          <mxGeometry y="26" width="160" height="26" as="geometry" />
        </mxCell>
        <mxCell id="VnNv1GlPoRaZdp6luFFu-35" value="" style="line;strokeWidth=1;fillColor=none;align=left;verticalAlign=middle;spacingTop=-1;spacingLeft=3;spacingRight=3;rotatable=0;labelPosition=right;points=[];portConstraint=eastwest;" parent="VnNv1GlPoRaZdp6luFFu-33" vertex="1">
          <mxGeometry y="52" width="160" height="8" as="geometry" />
        </mxCell>
        <mxCell id="VnNv1GlPoRaZdp6luFFu-36" value="+ method(type): type" style="text;strokeColor=none;fillColor=none;align=left;verticalAlign=top;spacingLeft=4;spacingRight=4;overflow=hidden;rotatable=0;points=[[0,0.5],[1,0.5]];portConstraint=eastwest;" parent="VnNv1GlPoRaZdp6luFFu-33" vertex="1">
          <mxGeometry y="60" width="160" height="26" as="geometry" />
        </mxCell>
        <mxCell id="VnNv1GlPoRaZdp6luFFu-46" style="edgeStyle=orthogonalEdgeStyle;rounded=0;orthogonalLoop=1;jettySize=auto;html=1;endArrow=diamondThin;endFill=1;endSize=12;" parent="1" source="VnNv1GlPoRaZdp6luFFu-37" target="VnNv1GlPoRaZdp6luFFu-33" edge="1">
          <mxGeometry relative="1" as="geometry">
            <Array as="points">
              <mxPoint x="70" y="283" />
            </Array>
          </mxGeometry>
        </mxCell>
        <mxCell id="VnNv1GlPoRaZdp6luFFu-45" style="edgeStyle=orthogonalEdgeStyle;rounded=0;orthogonalLoop=1;jettySize=auto;html=1;endArrow=diamondThin;endFill=1;endSize=12;" parent="1" source="VnNv1GlPoRaZdp6luFFu-41" target="VnNv1GlPoRaZdp6luFFu-33" edge="1">
          <mxGeometry relative="1" as="geometry">
            <Array as="points">
              <mxPoint x="90" y="163" />
            </Array>
          </mxGeometry>
        </mxCell>
        <mxCell id="VnNv1GlPoRaZdp6luFFu-41" value="GameBoardValidator" style="swimlane;fontStyle=1;align=center;verticalAlign=top;childLayout=stackLayout;horizontal=1;startSize=26;horizontalStack=0;resizeParent=1;resizeParentMax=0;resizeLast=0;collapsible=1;marginBottom=0;" parent="1" vertex="1">
          <mxGeometry x="210" y="120" width="160" height="86" as="geometry" />
        </mxCell>
        <mxCell id="VnNv1GlPoRaZdp6luFFu-42" value="+ field: type" style="text;strokeColor=none;fillColor=none;align=left;verticalAlign=top;spacingLeft=4;spacingRight=4;overflow=hidden;rotatable=0;points=[[0,0.5],[1,0.5]];portConstraint=eastwest;" parent="VnNv1GlPoRaZdp6luFFu-41" vertex="1">
          <mxGeometry y="26" width="160" height="26" as="geometry" />
        </mxCell>
        <mxCell id="VnNv1GlPoRaZdp6luFFu-43" value="" style="line;strokeWidth=1;fillColor=none;align=left;verticalAlign=middle;spacingTop=-1;spacingLeft=3;spacingRight=3;rotatable=0;labelPosition=right;points=[];portConstraint=eastwest;" parent="VnNv1GlPoRaZdp6luFFu-41" vertex="1">
          <mxGeometry y="52" width="160" height="8" as="geometry" />
        </mxCell>
        <mxCell id="VnNv1GlPoRaZdp6luFFu-44" value="+ method(type): type" style="text;strokeColor=none;fillColor=none;align=left;verticalAlign=top;spacingLeft=4;spacingRight=4;overflow=hidden;rotatable=0;points=[[0,0.5],[1,0.5]];portConstraint=eastwest;" parent="VnNv1GlPoRaZdp6luFFu-41" vertex="1">
          <mxGeometry y="60" width="160" height="26" as="geometry" />
        </mxCell>
        <mxCell id="VnNv1GlPoRaZdp6luFFu-47" value="GameBoardController" style="swimlane;fontStyle=1;align=center;verticalAlign=top;childLayout=stackLayout;horizontal=1;startSize=26;horizontalStack=0;resizeParent=1;resizeParentMax=0;resizeLast=0;collapsible=1;marginBottom=0;" parent="1" vertex="1">
          <mxGeometry x="-440" y="60" width="160" height="86" as="geometry" />
        </mxCell>
        <mxCell id="VnNv1GlPoRaZdp6luFFu-48" value="+ field: type" style="text;strokeColor=none;fillColor=none;align=left;verticalAlign=top;spacingLeft=4;spacingRight=4;overflow=hidden;rotatable=0;points=[[0,0.5],[1,0.5]];portConstraint=eastwest;" parent="VnNv1GlPoRaZdp6luFFu-47" vertex="1">
          <mxGeometry y="26" width="160" height="26" as="geometry" />
        </mxCell>
        <mxCell id="VnNv1GlPoRaZdp6luFFu-49" value="" style="line;strokeWidth=1;fillColor=none;align=left;verticalAlign=middle;spacingTop=-1;spacingLeft=3;spacingRight=3;rotatable=0;labelPosition=right;points=[];portConstraint=eastwest;" parent="VnNv1GlPoRaZdp6luFFu-47" vertex="1">
          <mxGeometry y="52" width="160" height="8" as="geometry" />
        </mxCell>
        <mxCell id="VnNv1GlPoRaZdp6luFFu-50" value="+ method(type): type" style="text;strokeColor=none;fillColor=none;align=left;verticalAlign=top;spacingLeft=4;spacingRight=4;overflow=hidden;rotatable=0;points=[[0,0.5],[1,0.5]];portConstraint=eastwest;" parent="VnNv1GlPoRaZdp6luFFu-47" vertex="1">
          <mxGeometry y="60" width="160" height="26" as="geometry" />
        </mxCell>
        <mxCell id="VnNv1GlPoRaZdp6luFFu-90" style="edgeStyle=orthogonalEdgeStyle;rounded=0;orthogonalLoop=1;jettySize=auto;html=1;endArrow=open;endFill=0;endSize=12;" parent="1" source="VnNv1GlPoRaZdp6luFFu-51" target="VnNv1GlPoRaZdp6luFFu-55" edge="1">
          <mxGeometry relative="1" as="geometry">
            <mxPoint x="-90" y="-240" as="targetPoint" />
            <Array as="points">
              <mxPoint x="-250" y="-212" />
              <mxPoint x="-160" y="-212" />
            </Array>
          </mxGeometry>
        </mxCell>
        <mxCell id="VnNv1GlPoRaZdp6luFFu-94" style="edgeStyle=orthogonalEdgeStyle;rounded=0;orthogonalLoop=1;jettySize=auto;html=1;endArrow=classic;endFill=1;endSize=12;" parent="1" source="VnNv1GlPoRaZdp6luFFu-51" target="VnNv1GlPoRaZdp6luFFu-47" edge="1">
          <mxGeometry relative="1" as="geometry">
            <Array as="points">
              <mxPoint x="-300" y="-30" />
              <mxPoint x="-360" y="-30" />
            </Array>
          </mxGeometry>
        </mxCell>
        <mxCell id="VnNv1GlPoRaZdp6luFFu-51" value="GoodTileController" style="swimlane;fontStyle=1;align=center;verticalAlign=top;childLayout=stackLayout;horizontal=1;startSize=26;horizontalStack=0;resizeParent=1;resizeParentMax=0;resizeLast=0;collapsible=1;marginBottom=0;" parent="1" vertex="1">
          <mxGeometry x="-330" y="-160" width="160" height="86" as="geometry" />
        </mxCell>
        <mxCell id="VnNv1GlPoRaZdp6luFFu-52" value="+ field: type" style="text;strokeColor=none;fillColor=none;align=left;verticalAlign=top;spacingLeft=4;spacingRight=4;overflow=hidden;rotatable=0;points=[[0,0.5],[1,0.5]];portConstraint=eastwest;" parent="VnNv1GlPoRaZdp6luFFu-51" vertex="1">
          <mxGeometry y="26" width="160" height="26" as="geometry" />
        </mxCell>
        <mxCell id="VnNv1GlPoRaZdp6luFFu-53" value="" style="line;strokeWidth=1;fillColor=none;align=left;verticalAlign=middle;spacingTop=-1;spacingLeft=3;spacingRight=3;rotatable=0;labelPosition=right;points=[];portConstraint=eastwest;" parent="VnNv1GlPoRaZdp6luFFu-51" vertex="1">
          <mxGeometry y="52" width="160" height="8" as="geometry" />
        </mxCell>
        <mxCell id="VnNv1GlPoRaZdp6luFFu-54" value="+ method(type): type" style="text;strokeColor=none;fillColor=none;align=left;verticalAlign=top;spacingLeft=4;spacingRight=4;overflow=hidden;rotatable=0;points=[[0,0.5],[1,0.5]];portConstraint=eastwest;" parent="VnNv1GlPoRaZdp6luFFu-51" vertex="1">
          <mxGeometry y="60" width="160" height="26" as="geometry" />
        </mxCell>
        <mxCell id="VnNv1GlPoRaZdp6luFFu-55" value="TileBase" style="swimlane;fontStyle=1;align=center;verticalAlign=top;childLayout=stackLayout;horizontal=1;startSize=26;horizontalStack=0;resizeParent=1;resizeParentMax=0;resizeLast=0;collapsible=1;marginBottom=0;" parent="1" vertex="1">
          <mxGeometry x="-200" y="-360" width="160" height="86" as="geometry" />
        </mxCell>
        <mxCell id="VnNv1GlPoRaZdp6luFFu-56" value="+ field: type" style="text;strokeColor=none;fillColor=none;align=left;verticalAlign=top;spacingLeft=4;spacingRight=4;overflow=hidden;rotatable=0;points=[[0,0.5],[1,0.5]];portConstraint=eastwest;" parent="VnNv1GlPoRaZdp6luFFu-55" vertex="1">
          <mxGeometry y="26" width="160" height="26" as="geometry" />
        </mxCell>
        <mxCell id="VnNv1GlPoRaZdp6luFFu-57" value="" style="line;strokeWidth=1;fillColor=none;align=left;verticalAlign=middle;spacingTop=-1;spacingLeft=3;spacingRight=3;rotatable=0;labelPosition=right;points=[];portConstraint=eastwest;" parent="VnNv1GlPoRaZdp6luFFu-55" vertex="1">
          <mxGeometry y="52" width="160" height="8" as="geometry" />
        </mxCell>
        <mxCell id="VnNv1GlPoRaZdp6luFFu-58" value="+ method(type): type" style="text;strokeColor=none;fillColor=none;align=left;verticalAlign=top;spacingLeft=4;spacingRight=4;overflow=hidden;rotatable=0;points=[[0,0.5],[1,0.5]];portConstraint=eastwest;" parent="VnNv1GlPoRaZdp6luFFu-55" vertex="1">
          <mxGeometry y="60" width="160" height="26" as="geometry" />
        </mxCell>
        <mxCell id="VnNv1GlPoRaZdp6luFFu-92" style="edgeStyle=orthogonalEdgeStyle;rounded=0;orthogonalLoop=1;jettySize=auto;html=1;endArrow=diamondThin;endFill=1;endSize=12;" parent="1" source="VnNv1GlPoRaZdp6luFFu-59" target="VnNv1GlPoRaZdp6luFFu-55" edge="1">
          <mxGeometry relative="1" as="geometry">
            <mxPoint x="-10" y="-422" as="targetPoint" />
          </mxGeometry>
        </mxCell>
        <mxCell id="VnNv1GlPoRaZdp6luFFu-59" value="TileRenderer" style="swimlane;fontStyle=1;align=center;verticalAlign=top;childLayout=stackLayout;horizontal=1;startSize=26;horizontalStack=0;resizeParent=1;resizeParentMax=0;resizeLast=0;collapsible=1;marginBottom=0;" parent="1" vertex="1">
          <mxGeometry x="-470" y="-360" width="160" height="86" as="geometry" />
        </mxCell>
        <mxCell id="VnNv1GlPoRaZdp6luFFu-60" value="+ field: type" style="text;strokeColor=none;fillColor=none;align=left;verticalAlign=top;spacingLeft=4;spacingRight=4;overflow=hidden;rotatable=0;points=[[0,0.5],[1,0.5]];portConstraint=eastwest;" parent="VnNv1GlPoRaZdp6luFFu-59" vertex="1">
          <mxGeometry y="26" width="160" height="26" as="geometry" />
        </mxCell>
        <mxCell id="VnNv1GlPoRaZdp6luFFu-61" value="" style="line;strokeWidth=1;fillColor=none;align=left;verticalAlign=middle;spacingTop=-1;spacingLeft=3;spacingRight=3;rotatable=0;labelPosition=right;points=[];portConstraint=eastwest;" parent="VnNv1GlPoRaZdp6luFFu-59" vertex="1">
          <mxGeometry y="52" width="160" height="8" as="geometry" />
        </mxCell>
        <mxCell id="VnNv1GlPoRaZdp6luFFu-62" value="+ method(type): type" style="text;strokeColor=none;fillColor=none;align=left;verticalAlign=top;spacingLeft=4;spacingRight=4;overflow=hidden;rotatable=0;points=[[0,0.5],[1,0.5]];portConstraint=eastwest;" parent="VnNv1GlPoRaZdp6luFFu-59" vertex="1">
          <mxGeometry y="60" width="160" height="26" as="geometry" />
        </mxCell>
        <mxCell id="VnNv1GlPoRaZdp6luFFu-91" style="edgeStyle=orthogonalEdgeStyle;rounded=0;orthogonalLoop=1;jettySize=auto;html=1;endArrow=open;endFill=0;endSize=12;" parent="1" source="VnNv1GlPoRaZdp6luFFu-63" target="VnNv1GlPoRaZdp6luFFu-55" edge="1">
          <mxGeometry relative="1" as="geometry">
            <Array as="points">
              <mxPoint x="-10" y="-212" />
              <mxPoint x="-90" y="-212" />
            </Array>
          </mxGeometry>
        </mxCell>
        <mxCell id="VnNv1GlPoRaZdp6luFFu-93" style="edgeStyle=orthogonalEdgeStyle;rounded=0;orthogonalLoop=1;jettySize=auto;html=1;endArrow=classic;endFill=1;endSize=12;" parent="1" source="VnNv1GlPoRaZdp6luFFu-63" target="VnNv1GlPoRaZdp6luFFu-47" edge="1">
          <mxGeometry relative="1" as="geometry">
            <Array as="points">
              <mxPoint x="-10" y="-10" />
              <mxPoint x="-310" y="-10" />
            </Array>
          </mxGeometry>
        </mxCell>
        <mxCell id="VnNv1GlPoRaZdp6luFFu-63" value="BadTileController" style="swimlane;fontStyle=1;align=center;verticalAlign=top;childLayout=stackLayout;horizontal=1;startSize=26;horizontalStack=0;resizeParent=1;resizeParentMax=0;resizeLast=0;collapsible=1;marginBottom=0;" parent="1" vertex="1">
          <mxGeometry x="-90" y="-160" width="160" height="86" as="geometry" />
        </mxCell>
        <mxCell id="VnNv1GlPoRaZdp6luFFu-64" value="+ field: type" style="text;strokeColor=none;fillColor=none;align=left;verticalAlign=top;spacingLeft=4;spacingRight=4;overflow=hidden;rotatable=0;points=[[0,0.5],[1,0.5]];portConstraint=eastwest;" parent="VnNv1GlPoRaZdp6luFFu-63" vertex="1">
          <mxGeometry y="26" width="160" height="26" as="geometry" />
        </mxCell>
        <mxCell id="VnNv1GlPoRaZdp6luFFu-65" value="" style="line;strokeWidth=1;fillColor=none;align=left;verticalAlign=middle;spacingTop=-1;spacingLeft=3;spacingRight=3;rotatable=0;labelPosition=right;points=[];portConstraint=eastwest;" parent="VnNv1GlPoRaZdp6luFFu-63" vertex="1">
          <mxGeometry y="52" width="160" height="8" as="geometry" />
        </mxCell>
        <mxCell id="VnNv1GlPoRaZdp6luFFu-66" value="+ method(type): type" style="text;strokeColor=none;fillColor=none;align=left;verticalAlign=top;spacingLeft=4;spacingRight=4;overflow=hidden;rotatable=0;points=[[0,0.5],[1,0.5]];portConstraint=eastwest;" parent="VnNv1GlPoRaZdp6luFFu-63" vertex="1">
          <mxGeometry y="60" width="160" height="26" as="geometry" />
        </mxCell>
        <mxCell id="VnNv1GlPoRaZdp6luFFu-67" style="edgeStyle=orthogonalEdgeStyle;rounded=0;orthogonalLoop=1;jettySize=auto;html=1;endArrow=diamondThin;endFill=1;endSize=12;" parent="1" source="VnNv1GlPoRaZdp6luFFu-48" target="VnNv1GlPoRaZdp6luFFu-33" edge="1">
          <mxGeometry relative="1" as="geometry">
            <Array as="points">
              <mxPoint x="-190" y="93" />
              <mxPoint x="-190" y="93" />
            </Array>
          </mxGeometry>
        </mxCell>
        <mxCell id="VnNv1GlPoRaZdp6luFFu-95" style="edgeStyle=orthogonalEdgeStyle;rounded=0;orthogonalLoop=1;jettySize=auto;html=1;endArrow=diamondThin;endFill=0;endSize=12;" parent="1" source="VnNv1GlPoRaZdp6luFFu-69" target="VnNv1GlPoRaZdp6luFFu-81" edge="1">
          <mxGeometry relative="1" as="geometry">
            <mxPoint x="-340" y="795" as="targetPoint" />
          </mxGeometry>
        </mxCell>
        <mxCell id="VnNv1GlPoRaZdp6luFFu-69" value="DifficultyButton" style="swimlane;fontStyle=1;align=center;verticalAlign=top;childLayout=stackLayout;horizontal=1;startSize=26;horizontalStack=0;resizeParent=1;resizeParentMax=0;resizeLast=0;collapsible=1;marginBottom=0;" parent="1" vertex="1">
          <mxGeometry x="-300" y="861" width="160" height="86" as="geometry" />
        </mxCell>
        <mxCell id="VnNv1GlPoRaZdp6luFFu-70" value="+ field: type" style="text;strokeColor=none;fillColor=none;align=left;verticalAlign=top;spacingLeft=4;spacingRight=4;overflow=hidden;rotatable=0;points=[[0,0.5],[1,0.5]];portConstraint=eastwest;" parent="VnNv1GlPoRaZdp6luFFu-69" vertex="1">
          <mxGeometry y="26" width="160" height="26" as="geometry" />
        </mxCell>
        <mxCell id="VnNv1GlPoRaZdp6luFFu-71" value="" style="line;strokeWidth=1;fillColor=none;align=left;verticalAlign=middle;spacingTop=-1;spacingLeft=3;spacingRight=3;rotatable=0;labelPosition=right;points=[];portConstraint=eastwest;" parent="VnNv1GlPoRaZdp6luFFu-69" vertex="1">
          <mxGeometry y="52" width="160" height="8" as="geometry" />
        </mxCell>
        <mxCell id="VnNv1GlPoRaZdp6luFFu-72" value="+ method(type): type" style="text;strokeColor=none;fillColor=none;align=left;verticalAlign=top;spacingLeft=4;spacingRight=4;overflow=hidden;rotatable=0;points=[[0,0.5],[1,0.5]];portConstraint=eastwest;" parent="VnNv1GlPoRaZdp6luFFu-69" vertex="1">
          <mxGeometry y="60" width="160" height="26" as="geometry" />
        </mxCell>
        <mxCell id="VnNv1GlPoRaZdp6luFFu-73" value="LevelLoader" style="swimlane;fontStyle=1;align=center;verticalAlign=top;childLayout=stackLayout;horizontal=1;startSize=26;horizontalStack=0;resizeParent=1;resizeParentMax=0;resizeLast=0;collapsible=1;marginBottom=0;" parent="1" vertex="1">
          <mxGeometry x="20" y="460" width="160" height="86" as="geometry" />
        </mxCell>
        <mxCell id="VnNv1GlPoRaZdp6luFFu-74" value="+ field: type" style="text;strokeColor=none;fillColor=none;align=left;verticalAlign=top;spacingLeft=4;spacingRight=4;overflow=hidden;rotatable=0;points=[[0,0.5],[1,0.5]];portConstraint=eastwest;" parent="VnNv1GlPoRaZdp6luFFu-73" vertex="1">
          <mxGeometry y="26" width="160" height="26" as="geometry" />
        </mxCell>
        <mxCell id="VnNv1GlPoRaZdp6luFFu-75" value="" style="line;strokeWidth=1;fillColor=none;align=left;verticalAlign=middle;spacingTop=-1;spacingLeft=3;spacingRight=3;rotatable=0;labelPosition=right;points=[];portConstraint=eastwest;" parent="VnNv1GlPoRaZdp6luFFu-73" vertex="1">
          <mxGeometry y="52" width="160" height="8" as="geometry" />
        </mxCell>
        <mxCell id="VnNv1GlPoRaZdp6luFFu-76" value="+ method(type): type" style="text;strokeColor=none;fillColor=none;align=left;verticalAlign=top;spacingLeft=4;spacingRight=4;overflow=hidden;rotatable=0;points=[[0,0.5],[1,0.5]];portConstraint=eastwest;" parent="VnNv1GlPoRaZdp6luFFu-73" vertex="1">
          <mxGeometry y="60" width="160" height="26" as="geometry" />
        </mxCell>
        <mxCell id="VnNv1GlPoRaZdp6luFFu-99" style="edgeStyle=orthogonalEdgeStyle;rounded=0;orthogonalLoop=1;jettySize=auto;html=1;endArrow=diamondThin;endFill=0;endSize=12;" parent="1" source="VnNv1GlPoRaZdp6luFFu-81" target="VnNv1GlPoRaZdp6luFFu-73" edge="1">
          <mxGeometry relative="1" as="geometry">
            <Array as="points">
              <mxPoint x="50" y="718" />
            </Array>
          </mxGeometry>
        </mxCell>
        <mxCell id="VnNv1GlPoRaZdp6luFFu-81" value="MainMenu" style="swimlane;fontStyle=1;align=center;verticalAlign=top;childLayout=stackLayout;horizontal=1;startSize=26;horizontalStack=0;resizeParent=1;resizeParentMax=0;resizeLast=0;collapsible=1;marginBottom=0;" parent="1" vertex="1">
          <mxGeometry x="-443" y="675" width="160" height="86" as="geometry" />
        </mxCell>
        <mxCell id="VnNv1GlPoRaZdp6luFFu-82" value="+ field: type" style="text;strokeColor=none;fillColor=none;align=left;verticalAlign=top;spacingLeft=4;spacingRight=4;overflow=hidden;rotatable=0;points=[[0,0.5],[1,0.5]];portConstraint=eastwest;" parent="VnNv1GlPoRaZdp6luFFu-81" vertex="1">
          <mxGeometry y="26" width="160" height="26" as="geometry" />
        </mxCell>
        <mxCell id="VnNv1GlPoRaZdp6luFFu-83" value="" style="line;strokeWidth=1;fillColor=none;align=left;verticalAlign=middle;spacingTop=-1;spacingLeft=3;spacingRight=3;rotatable=0;labelPosition=right;points=[];portConstraint=eastwest;" parent="VnNv1GlPoRaZdp6luFFu-81" vertex="1">
          <mxGeometry y="52" width="160" height="8" as="geometry" />
        </mxCell>
        <mxCell id="VnNv1GlPoRaZdp6luFFu-84" value="+ method(type): type" style="text;strokeColor=none;fillColor=none;align=left;verticalAlign=top;spacingLeft=4;spacingRight=4;overflow=hidden;rotatable=0;points=[[0,0.5],[1,0.5]];portConstraint=eastwest;" parent="VnNv1GlPoRaZdp6luFFu-81" vertex="1">
          <mxGeometry y="60" width="160" height="26" as="geometry" />
        </mxCell>
        <mxCell id="VnNv1GlPoRaZdp6luFFu-96" style="edgeStyle=orthogonalEdgeStyle;rounded=0;orthogonalLoop=1;jettySize=auto;html=1;endArrow=diamondThin;endFill=0;endSize=12;" parent="1" source="VnNv1GlPoRaZdp6luFFu-85" target="VnNv1GlPoRaZdp6luFFu-81" edge="1">
          <mxGeometry relative="1" as="geometry">
            <Array as="points">
              <mxPoint x="-520" y="816" />
              <mxPoint x="-390" y="816" />
            </Array>
          </mxGeometry>
        </mxCell>
        <mxCell id="VnNv1GlPoRaZdp6luFFu-85" value="SizeButton" style="swimlane;fontStyle=1;align=center;verticalAlign=top;childLayout=stackLayout;horizontal=1;startSize=26;horizontalStack=0;resizeParent=1;resizeParentMax=0;resizeLast=0;collapsible=1;marginBottom=0;" parent="1" vertex="1">
          <mxGeometry x="-600" y="861" width="160" height="86" as="geometry" />
        </mxCell>
        <mxCell id="VnNv1GlPoRaZdp6luFFu-86" value="+ field: type" style="text;strokeColor=none;fillColor=none;align=left;verticalAlign=top;spacingLeft=4;spacingRight=4;overflow=hidden;rotatable=0;points=[[0,0.5],[1,0.5]];portConstraint=eastwest;" parent="VnNv1GlPoRaZdp6luFFu-85" vertex="1">
          <mxGeometry y="26" width="160" height="26" as="geometry" />
        </mxCell>
        <mxCell id="VnNv1GlPoRaZdp6luFFu-87" value="" style="line;strokeWidth=1;fillColor=none;align=left;verticalAlign=middle;spacingTop=-1;spacingLeft=3;spacingRight=3;rotatable=0;labelPosition=right;points=[];portConstraint=eastwest;" parent="VnNv1GlPoRaZdp6luFFu-85" vertex="1">
          <mxGeometry y="52" width="160" height="8" as="geometry" />
        </mxCell>
        <mxCell id="VnNv1GlPoRaZdp6luFFu-88" value="+ method(type): type" style="text;strokeColor=none;fillColor=none;align=left;verticalAlign=top;spacingLeft=4;spacingRight=4;overflow=hidden;rotatable=0;points=[[0,0.5],[1,0.5]];portConstraint=eastwest;" parent="VnNv1GlPoRaZdp6luFFu-85" vertex="1">
          <mxGeometry y="60" width="160" height="26" as="geometry" />
        </mxCell>
        <mxCell id="VnNv1GlPoRaZdp6luFFu-97" value="Main Menu Screen" style="swimlane;" parent="1" vertex="1">
          <mxGeometry x="-660" y="610" width="560" height="405" as="geometry" />
        </mxCell>
        <mxCell id="VnNv1GlPoRaZdp6luFFu-98" value="Win Screen" style="swimlane;" parent="1" vertex="1">
          <mxGeometry x="320" y="670" width="310" height="218" as="geometry" />
        </mxCell>
        <mxCell id="VnNv1GlPoRaZdp6luFFu-77" value="WinSceneManager" style="swimlane;fontStyle=1;align=center;verticalAlign=top;childLayout=stackLayout;horizontal=1;startSize=26;horizontalStack=0;resizeParent=1;resizeParentMax=0;resizeLast=0;collapsible=1;marginBottom=0;" parent="VnNv1GlPoRaZdp6luFFu-98" vertex="1">
          <mxGeometry x="100" y="78" width="160" height="86" as="geometry" />
        </mxCell>
        <mxCell id="VnNv1GlPoRaZdp6luFFu-78" value="+ field: type" style="text;strokeColor=none;fillColor=none;align=left;verticalAlign=top;spacingLeft=4;spacingRight=4;overflow=hidden;rotatable=0;points=[[0,0.5],[1,0.5]];portConstraint=eastwest;" parent="VnNv1GlPoRaZdp6luFFu-77" vertex="1">
          <mxGeometry y="26" width="160" height="26" as="geometry" />
        </mxCell>
        <mxCell id="VnNv1GlPoRaZdp6luFFu-79" value="" style="line;strokeWidth=1;fillColor=none;align=left;verticalAlign=middle;spacingTop=-1;spacingLeft=3;spacingRight=3;rotatable=0;labelPosition=right;points=[];portConstraint=eastwest;" parent="VnNv1GlPoRaZdp6luFFu-77" vertex="1">
          <mxGeometry y="52" width="160" height="8" as="geometry" />
        </mxCell>
        <mxCell id="VnNv1GlPoRaZdp6luFFu-80" value="+ method(type): type" style="text;strokeColor=none;fillColor=none;align=left;verticalAlign=top;spacingLeft=4;spacingRight=4;overflow=hidden;rotatable=0;points=[[0,0.5],[1,0.5]];portConstraint=eastwest;" parent="VnNv1GlPoRaZdp6luFFu-77" vertex="1">
          <mxGeometry y="60" width="160" height="26" as="geometry" />
        </mxCell>
        <mxCell id="VnNv1GlPoRaZdp6luFFu-100" style="edgeStyle=orthogonalEdgeStyle;rounded=0;orthogonalLoop=1;jettySize=auto;html=1;endArrow=diamondThin;endFill=0;endSize=12;" parent="1" source="VnNv1GlPoRaZdp6luFFu-77" target="VnNv1GlPoRaZdp6luFFu-73" edge="1">
          <mxGeometry relative="1" as="geometry">
            <Array as="points">
              <mxPoint x="130" y="760" />
            </Array>
          </mxGeometry>
        </mxCell>
        <mxCell id="VnNv1GlPoRaZdp6luFFu-101" style="edgeStyle=orthogonalEdgeStyle;rounded=0;orthogonalLoop=1;jettySize=auto;html=1;endArrow=diamondThin;endFill=0;endSize=12;" parent="1" source="VnNv1GlPoRaZdp6luFFu-33" target="VnNv1GlPoRaZdp6luFFu-73" edge="1">
          <mxGeometry relative="1" as="geometry">
            <Array as="points">
              <mxPoint x="30" y="270" />
              <mxPoint x="30" y="270" />
            </Array>
          </mxGeometry>
        </mxCell>
        <mxCell id="VnNv1GlPoRaZdp6luFFu-102" value="GameSceren" style="swimlane;" parent="1" vertex="1">
          <mxGeometry x="-580" y="-490" width="1730" height="890" as="geometry" />
        </mxCell>
        <mxCell id="VnNv1GlPoRaZdp6luFFu-37" value="GameStateMachine" style="swimlane;fontStyle=1;align=center;verticalAlign=top;childLayout=stackLayout;horizontal=1;startSize=26;horizontalStack=0;resizeParent=1;resizeParentMax=0;resizeLast=0;collapsible=1;marginBottom=0;" parent="VnNv1GlPoRaZdp6luFFu-102" vertex="1">
          <mxGeometry x="790" y="730" width="160" height="86" as="geometry" />
        </mxCell>
        <mxCell id="VnNv1GlPoRaZdp6luFFu-38" value="+ field: type" style="text;strokeColor=none;fillColor=none;align=left;verticalAlign=top;spacingLeft=4;spacingRight=4;overflow=hidden;rotatable=0;points=[[0,0.5],[1,0.5]];portConstraint=eastwest;" parent="VnNv1GlPoRaZdp6luFFu-37" vertex="1">
          <mxGeometry y="26" width="160" height="26" as="geometry" />
        </mxCell>
        <mxCell id="VnNv1GlPoRaZdp6luFFu-39" value="" style="line;strokeWidth=1;fillColor=none;align=left;verticalAlign=middle;spacingTop=-1;spacingLeft=3;spacingRight=3;rotatable=0;labelPosition=right;points=[];portConstraint=eastwest;" parent="VnNv1GlPoRaZdp6luFFu-37" vertex="1">
          <mxGeometry y="52" width="160" height="8" as="geometry" />
        </mxCell>
        <mxCell id="VnNv1GlPoRaZdp6luFFu-40" value="+ method(type): type" style="text;strokeColor=none;fillColor=none;align=left;verticalAlign=top;spacingLeft=4;spacingRight=4;overflow=hidden;rotatable=0;points=[[0,0.5],[1,0.5]];portConstraint=eastwest;" parent="VnNv1GlPoRaZdp6luFFu-37" vertex="1">
          <mxGeometry y="60" width="160" height="26" as="geometry" />
        </mxCell>
      </root>
    </mxGraphModel>
  </diagram>
  <diagram id="v-KwAt41Hncbau6GJ-Lx" name="Page-2">
    <mxGraphModel dx="1823" dy="1694" grid="1" gridSize="10" guides="1" tooltips="1" connect="1" arrows="1" fold="1" page="0" pageScale="1" pageWidth="850" pageHeight="1100" math="0" shadow="0">
      <root>
        <mxCell id="zYfKWJ9DApVb-9AJnqi3-0" />
        <mxCell id="zYfKWJ9DApVb-9AJnqi3-1" parent="zYfKWJ9DApVb-9AJnqi3-0" />
        <mxCell id="zYfKWJ9DApVb-9AJnqi3-9" style="edgeStyle=orthogonalEdgeStyle;rounded=0;orthogonalLoop=1;jettySize=auto;html=1;endArrow=block;endFill=0;endSize=18;" edge="1" parent="zYfKWJ9DApVb-9AJnqi3-1" source="zYfKWJ9DApVb-9AJnqi3-38" target="zYfKWJ9DApVb-9AJnqi3-34">
          <mxGeometry relative="1" as="geometry">
            <mxPoint x="17" y="280" as="sourcePoint" />
            <mxPoint x="280" y="140" as="targetPoint" />
            <Array as="points">
              <mxPoint x="70" y="140" />
            </Array>
          </mxGeometry>
        </mxCell>
        <mxCell id="zYfKWJ9DApVb-9AJnqi3-13" style="edgeStyle=orthogonalEdgeStyle;rounded=0;orthogonalLoop=1;jettySize=auto;html=1;endArrow=open;endFill=0;endSize=18;" edge="1" parent="zYfKWJ9DApVb-9AJnqi3-1" source="zYfKWJ9DApVb-9AJnqi3-38" target="zYfKWJ9DApVb-9AJnqi3-12">
          <mxGeometry relative="1" as="geometry">
            <mxPoint x="-20" y="325" as="sourcePoint" />
            <Array as="points">
              <mxPoint x="-110" y="325" />
              <mxPoint x="-110" y="635" />
            </Array>
          </mxGeometry>
        </mxCell>
        <mxCell id="zYfKWJ9DApVb-9AJnqi3-10" style="edgeStyle=orthogonalEdgeStyle;rounded=0;orthogonalLoop=1;jettySize=auto;html=1;endArrow=block;endFill=0;endSize=18;" edge="1" parent="zYfKWJ9DApVb-9AJnqi3-1" source="zYfKWJ9DApVb-9AJnqi3-36" target="zYfKWJ9DApVb-9AJnqi3-34">
          <mxGeometry relative="1" as="geometry">
            <mxPoint x="390" y="280" as="sourcePoint" />
            <mxPoint x="390" y="170" as="targetPoint" />
            <Array as="points">
              <mxPoint x="390" y="270" />
              <mxPoint x="390" y="270" />
            </Array>
          </mxGeometry>
        </mxCell>
        <mxCell id="zYfKWJ9DApVb-9AJnqi3-20" style="edgeStyle=orthogonalEdgeStyle;rounded=0;orthogonalLoop=1;jettySize=auto;html=1;endArrow=open;endFill=0;endSize=18;" edge="1" parent="zYfKWJ9DApVb-9AJnqi3-1" source="zYfKWJ9DApVb-9AJnqi3-36" target="zYfKWJ9DApVb-9AJnqi3-19">
          <mxGeometry relative="1" as="geometry">
            <mxPoint x="367" y="370" as="sourcePoint" />
            <mxPoint x="397" y="430" as="targetPoint" />
            <Array as="points">
              <mxPoint x="360" y="410" />
              <mxPoint x="360" y="410" />
            </Array>
          </mxGeometry>
        </mxCell>
        <mxCell id="zYfKWJ9DApVb-9AJnqi3-11" style="edgeStyle=orthogonalEdgeStyle;rounded=0;orthogonalLoop=1;jettySize=auto;html=1;endArrow=block;endFill=0;endSize=18;" edge="1" parent="zYfKWJ9DApVb-9AJnqi3-1" source="zYfKWJ9DApVb-9AJnqi3-37" target="zYfKWJ9DApVb-9AJnqi3-34">
          <mxGeometry relative="1" as="geometry">
            <mxPoint x="650" y="280" as="sourcePoint" />
            <mxPoint x="440" y="140" as="targetPoint" />
            <Array as="points">
              <mxPoint x="640" y="140" />
            </Array>
          </mxGeometry>
        </mxCell>
        <mxCell id="zYfKWJ9DApVb-9AJnqi3-12" value="Algorithms" style="shape=folder;tabWidth=80;tabHeight=20;tabPosition=left;strokeWidth=2;html=1;whiteSpace=wrap;align=center;" vertex="1" parent="zYfKWJ9DApVb-9AJnqi3-1">
          <mxGeometry x="-15" y="590" width="160" height="90" as="geometry" />
        </mxCell>
        <mxCell id="zYfKWJ9DApVb-9AJnqi3-19" value="Bottons" style="shape=folder;tabWidth=80;tabHeight=20;tabPosition=left;strokeWidth=2;html=1;whiteSpace=wrap;align=center;" vertex="1" parent="zYfKWJ9DApVb-9AJnqi3-1">
          <mxGeometry x="317" y="430" width="160" height="90" as="geometry" />
        </mxCell>
        <mxCell id="zYfKWJ9DApVb-9AJnqi3-21" value="Game" style="swimlane;" vertex="1" parent="zYfKWJ9DApVb-9AJnqi3-1">
          <mxGeometry x="-130" y="230" width="390" height="330" as="geometry" />
        </mxCell>
        <mxCell id="zYfKWJ9DApVb-9AJnqi3-15" value="Board" style="shape=folder;tabWidth=80;tabHeight=20;tabPosition=left;strokeWidth=2;html=1;whiteSpace=wrap;align=center;" vertex="1" parent="zYfKWJ9DApVb-9AJnqi3-21">
          <mxGeometry x="220" y="200" width="160" height="90" as="geometry" />
        </mxCell>
        <mxCell id="zYfKWJ9DApVb-9AJnqi3-14" value="GameHelper" style="shape=folder;tabWidth=80;tabHeight=20;tabPosition=left;strokeWidth=2;html=1;whiteSpace=wrap;align=center;" vertex="1" parent="zYfKWJ9DApVb-9AJnqi3-21">
          <mxGeometry x="40" y="200" width="160" height="90" as="geometry" />
        </mxCell>
        <mxCell id="zYfKWJ9DApVb-9AJnqi3-38" value="GameController" style="html=1;" vertex="1" parent="zYfKWJ9DApVb-9AJnqi3-21">
          <mxGeometry x="130" y="70" width="110" height="50" as="geometry" />
        </mxCell>
        <mxCell id="zYfKWJ9DApVb-9AJnqi3-16" style="edgeStyle=orthogonalEdgeStyle;rounded=0;orthogonalLoop=1;jettySize=auto;html=1;endArrow=open;endFill=0;endSize=18;" edge="1" parent="zYfKWJ9DApVb-9AJnqi3-21" source="zYfKWJ9DApVb-9AJnqi3-38" target="zYfKWJ9DApVb-9AJnqi3-14">
          <mxGeometry relative="1" as="geometry">
            <mxPoint x="120" y="140" as="sourcePoint" />
            <Array as="points">
              <mxPoint x="150" y="150" />
              <mxPoint x="80" y="150" />
            </Array>
          </mxGeometry>
        </mxCell>
        <mxCell id="zYfKWJ9DApVb-9AJnqi3-17" style="edgeStyle=orthogonalEdgeStyle;rounded=0;orthogonalLoop=1;jettySize=auto;html=1;endArrow=open;endFill=0;endSize=18;" edge="1" parent="zYfKWJ9DApVb-9AJnqi3-21" source="zYfKWJ9DApVb-9AJnqi3-38" target="zYfKWJ9DApVb-9AJnqi3-15">
          <mxGeometry relative="1" as="geometry">
            <mxPoint x="240" y="140" as="sourcePoint" />
            <Array as="points">
              <mxPoint x="185" y="150" />
              <mxPoint x="250" y="150" />
            </Array>
          </mxGeometry>
        </mxCell>
        <mxCell id="zYfKWJ9DApVb-9AJnqi3-22" value="MainMenu" style="swimlane;" vertex="1" parent="zYfKWJ9DApVb-9AJnqi3-1">
          <mxGeometry x="282" y="230" width="230" height="330" as="geometry" />
        </mxCell>
        <mxCell id="zYfKWJ9DApVb-9AJnqi3-36" value="MainMenuController" style="html=1;" vertex="1" parent="zYfKWJ9DApVb-9AJnqi3-22">
          <mxGeometry x="42" y="70" width="150" height="50" as="geometry" />
        </mxCell>
        <mxCell id="zYfKWJ9DApVb-9AJnqi3-25" value="Win" style="swimlane;" vertex="1" parent="zYfKWJ9DApVb-9AJnqi3-1">
          <mxGeometry x="530" y="230" width="230" height="160" as="geometry" />
        </mxCell>
        <mxCell id="zYfKWJ9DApVb-9AJnqi3-37" value="WinController" style="html=1;" vertex="1" parent="zYfKWJ9DApVb-9AJnqi3-25">
          <mxGeometry x="60" y="70" width="110" height="50" as="geometry" />
        </mxCell>
        <mxCell id="zYfKWJ9DApVb-9AJnqi3-26" value="Utils" style="shape=folder;tabWidth=80;tabHeight=20;tabPosition=left;strokeWidth=2;html=1;whiteSpace=wrap;align=center;" vertex="1" parent="zYfKWJ9DApVb-9AJnqi3-1">
          <mxGeometry x="-110" y="-520" width="160" height="90" as="geometry" />
        </mxCell>
        <mxCell id="zYfKWJ9DApVb-9AJnqi3-27" value="Algorithms" style="shape=folder;tabWidth=80;tabHeight=20;tabPosition=left;strokeWidth=2;html=1;whiteSpace=wrap;align=center;" vertex="1" parent="zYfKWJ9DApVb-9AJnqi3-1">
          <mxGeometry x="145" y="-360" width="160" height="90" as="geometry" />
        </mxCell>
        <mxCell id="zYfKWJ9DApVb-9AJnqi3-28" value="MainMenu" style="shape=folder;tabWidth=80;tabHeight=20;tabPosition=left;strokeWidth=2;html=1;whiteSpace=wrap;align=center;" vertex="1" parent="zYfKWJ9DApVb-9AJnqi3-1">
          <mxGeometry x="-60" y="-200" width="160" height="90" as="geometry" />
        </mxCell>
        <mxCell id="zYfKWJ9DApVb-9AJnqi3-29" value="Win" style="shape=folder;tabWidth=80;tabHeight=20;tabPosition=left;strokeWidth=2;html=1;whiteSpace=wrap;align=center;" vertex="1" parent="zYfKWJ9DApVb-9AJnqi3-1">
          <mxGeometry x="160" y="-240" width="160" height="90" as="geometry" />
        </mxCell>
        <mxCell id="zYfKWJ9DApVb-9AJnqi3-32" value="Game" style="shape=folder;tabWidth=80;tabHeight=20;tabPosition=left;strokeWidth=2;html=1;whiteSpace=wrap;align=center;" vertex="1" parent="zYfKWJ9DApVb-9AJnqi3-1">
          <mxGeometry x="-170" y="-400" width="160" height="90" as="geometry" />
        </mxCell>
        <mxCell id="zYfKWJ9DApVb-9AJnqi3-34" value="LevelLoader" style="html=1;" vertex="1" parent="zYfKWJ9DApVb-9AJnqi3-1">
          <mxGeometry x="335" y="120" width="110" height="50" as="geometry" />
        </mxCell>
      </root>
    </mxGraphModel>
  </diagram>
  <diagram id="zwTxfzOrZQBmmC2Ku4K9" name="FolderStructure">
    <mxGraphModel dx="1423" dy="894" grid="1" gridSize="10" guides="1" tooltips="1" connect="1" arrows="1" fold="0" page="1" pageScale="1" pageWidth="850" pageHeight="1100" math="0" shadow="0">
      <root>
        <mxCell id="gpjqHz1rv-KUtQzEXRP0-0" />
        <mxCell id="gpjqHz1rv-KUtQzEXRP0-1" parent="gpjqHz1rv-KUtQzEXRP0-0" />
        <mxCell id="gpjqHz1rv-KUtQzEXRP0-2" value="Script" style="swimlane;" vertex="1" parent="gpjqHz1rv-KUtQzEXRP0-1">
          <mxGeometry x="70" y="110" width="560" height="680" as="geometry" />
        </mxCell>
        <mxCell id="gpjqHz1rv-KUtQzEXRP0-3" value="Game" style="swimlane;" vertex="1" parent="gpjqHz1rv-KUtQzEXRP0-2">
          <mxGeometry x="30" y="50" width="240" height="310" as="geometry" />
        </mxCell>
        <mxCell id="gpjqHz1rv-KUtQzEXRP0-6" value="GameHelper" style="shape=folder;fontStyle=1;spacingTop=10;tabWidth=40;tabHeight=14;tabPosition=left;html=1;" vertex="1" parent="gpjqHz1rv-KUtQzEXRP0-3">
          <mxGeometry x="60" y="210" width="120" height="70" as="geometry" />
        </mxCell>
        <mxCell id="gpjqHz1rv-KUtQzEXRP0-7" value="Board" style="swimlane;" vertex="1" parent="gpjqHz1rv-KUtQzEXRP0-3">
          <mxGeometry x="25" y="50" width="190" height="140" as="geometry" />
        </mxCell>
        <mxCell id="gpjqHz1rv-KUtQzEXRP0-9" value="Tile" style="shape=folder;fontStyle=1;spacingTop=10;tabWidth=40;tabHeight=14;tabPosition=left;html=1;" vertex="1" parent="gpjqHz1rv-KUtQzEXRP0-7">
          <mxGeometry x="30" y="50" width="120" height="70" as="geometry" />
        </mxCell>
        <mxCell id="gpjqHz1rv-KUtQzEXRP0-4" value="Algorithms" style="shape=folder;fontStyle=1;spacingTop=10;tabWidth=40;tabHeight=14;tabPosition=left;html=1;" vertex="1" parent="gpjqHz1rv-KUtQzEXRP0-2">
          <mxGeometry x="90" y="510" width="120" height="70" as="geometry" />
        </mxCell>
        <mxCell id="gpjqHz1rv-KUtQzEXRP0-5" value="Win" style="shape=folder;fontStyle=1;spacingTop=10;tabWidth=40;tabHeight=14;tabPosition=left;html=1;" vertex="1" parent="gpjqHz1rv-KUtQzEXRP0-2">
          <mxGeometry x="90" y="390" width="120" height="70" as="geometry" />
        </mxCell>
        <mxCell id="gpjqHz1rv-KUtQzEXRP0-10" value="MainMenu" style="swimlane;" vertex="1" parent="gpjqHz1rv-KUtQzEXRP0-2">
          <mxGeometry x="330" y="50" width="200" height="150" as="geometry" />
        </mxCell>
        <mxCell id="gpjqHz1rv-KUtQzEXRP0-11" value="Buttons" style="shape=folder;fontStyle=1;spacingTop=10;tabWidth=40;tabHeight=14;tabPosition=left;html=1;" vertex="1" parent="gpjqHz1rv-KUtQzEXRP0-10">
          <mxGeometry x="40" y="50" width="120" height="70" as="geometry" />
        </mxCell>
        <mxCell id="gpjqHz1rv-KUtQzEXRP0-12" value="Utils" style="swimlane;" vertex="1" parent="gpjqHz1rv-KUtQzEXRP0-2">
          <mxGeometry x="330" y="220" width="200" height="430" as="geometry" />
        </mxCell>
        <mxCell id="gpjqHz1rv-KUtQzEXRP0-16" value="Helpers" style="shape=folder;fontStyle=1;spacingTop=10;tabWidth=40;tabHeight=14;tabPosition=left;html=1;" vertex="1" parent="gpjqHz1rv-KUtQzEXRP0-12">
          <mxGeometry x="40" y="50" width="120" height="70" as="geometry" />
        </mxCell>
        <mxCell id="gpjqHz1rv-KUtQzEXRP0-15" value="Enums" style="shape=folder;fontStyle=1;spacingTop=10;tabWidth=40;tabHeight=14;tabPosition=left;html=1;" vertex="1" parent="gpjqHz1rv-KUtQzEXRP0-12">
          <mxGeometry x="40" y="140" width="120" height="70" as="geometry" />
        </mxCell>
        <mxCell id="gpjqHz1rv-KUtQzEXRP0-14" value="DataStructures" style="shape=folder;fontStyle=1;spacingTop=10;tabWidth=40;tabHeight=14;tabPosition=left;html=1;" vertex="1" parent="gpjqHz1rv-KUtQzEXRP0-12">
          <mxGeometry x="40" y="230" width="120" height="70" as="geometry" />
        </mxCell>
        <mxCell id="gpjqHz1rv-KUtQzEXRP0-13" value="TestData" style="shape=folder;fontStyle=1;spacingTop=10;tabWidth=40;tabHeight=14;tabPosition=left;html=1;" vertex="1" parent="gpjqHz1rv-KUtQzEXRP0-12">
          <mxGeometry x="40" y="330" width="120" height="70" as="geometry" />
        </mxCell>
      </root>
    </mxGraphModel>
  </diagram>
  <diagram id="pxm0yCbY-g0O8PepYGDi" name="AlgorithmsClassDiagram">
    <mxGraphModel dx="1423" dy="1994" grid="1" gridSize="10" guides="1" tooltips="1" connect="1" arrows="1" fold="1" page="1" pageScale="1" pageWidth="850" pageHeight="1100" math="0" shadow="0">
      <root>
        <mxCell id="2_a15jSnz4EfBw2mQ9b3-0" />
        <mxCell id="2_a15jSnz4EfBw2mQ9b3-1" parent="2_a15jSnz4EfBw2mQ9b3-0" />
        <mxCell id="pgTgq3_JVF9ScQAF9HCS-0" value="_generator&lt;br&gt;1" style="edgeStyle=orthogonalEdgeStyle;rounded=0;orthogonalLoop=1;jettySize=auto;html=1;endArrow=diamondThin;endFill=1;endSize=16;" edge="1" parent="2_a15jSnz4EfBw2mQ9b3-1" target="pgTgq3_JVF9ScQAF9HCS-5">
          <mxGeometry x="-0.8443" y="30" relative="1" as="geometry">
            <mxPoint x="180.0344827586207" y="-800.0000000000001" as="sourcePoint" />
            <mxPoint x="320" y="-917" as="targetPoint" />
            <Array as="points">
              <mxPoint x="180" y="-917" />
              <mxPoint x="350" y="-917" />
            </Array>
            <mxPoint as="offset" />
          </mxGeometry>
        </mxCell>
        <mxCell id="pgTgq3_JVF9ScQAF9HCS-1" value="Generator" style="swimlane;fontStyle=1;align=center;verticalAlign=top;childLayout=stackLayout;horizontal=1;startSize=26;horizontalStack=0;resizeParent=1;resizeParentMax=0;resizeLast=0;collapsible=1;marginBottom=0;" vertex="1" parent="2_a15jSnz4EfBw2mQ9b3-1">
          <mxGeometry x="50" y="-820" width="250" height="130" as="geometry" />
        </mxCell>
        <mxCell id="pgTgq3_JVF9ScQAF9HCS-2" value="- _walls: List&lt;Vector2Int&gt;&#xa;- _candidates: List&lt;Vector2Int&gt;" style="text;strokeColor=none;fillColor=none;align=left;verticalAlign=top;spacingLeft=4;spacingRight=4;overflow=hidden;rotatable=0;points=[[0,0.5],[1,0.5]];portConstraint=eastwest;" vertex="1" parent="pgTgq3_JVF9ScQAF9HCS-1">
          <mxGeometry y="26" width="250" height="44" as="geometry" />
        </mxCell>
        <mxCell id="pgTgq3_JVF9ScQAF9HCS-3" value="" style="line;strokeWidth=1;fillColor=none;align=left;verticalAlign=middle;spacingTop=-1;spacingLeft=3;spacingRight=3;rotatable=0;labelPosition=right;points=[];portConstraint=eastwest;" vertex="1" parent="pgTgq3_JVF9ScQAF9HCS-1">
          <mxGeometry y="70" width="250" height="8" as="geometry" />
        </mxCell>
        <mxCell id="pgTgq3_JVF9ScQAF9HCS-4" value="+ GeneratePuzzle(size: Vector2Int): Puzzle&#xa;- UpdateCandidates(puzzle: Puzzle)&#xa;- PickCandidates(puzzle: Puzzle)" style="text;strokeColor=none;fillColor=none;align=left;verticalAlign=top;spacingLeft=4;spacingRight=4;overflow=hidden;rotatable=0;points=[[0,0.5],[1,0.5]];portConstraint=eastwest;" vertex="1" parent="pgTgq3_JVF9ScQAF9HCS-1">
          <mxGeometry y="78" width="250" height="52" as="geometry" />
        </mxCell>
        <mxCell id="pgTgq3_JVF9ScQAF9HCS-5" value="AlgorithmController" style="swimlane;fontStyle=1;align=center;verticalAlign=top;childLayout=stackLayout;horizontal=1;startSize=26;horizontalStack=0;resizeParent=1;resizeParentMax=0;resizeLast=0;collapsible=1;marginBottom=0;" vertex="1" parent="2_a15jSnz4EfBw2mQ9b3-1">
          <mxGeometry x="310" y="-1060" width="320" height="60" as="geometry" />
        </mxCell>
        <mxCell id="pgTgq3_JVF9ScQAF9HCS-7" value="" style="line;strokeWidth=1;fillColor=none;align=left;verticalAlign=middle;spacingTop=-1;spacingLeft=3;spacingRight=3;rotatable=0;labelPosition=right;points=[];portConstraint=eastwest;" vertex="1" parent="pgTgq3_JVF9ScQAF9HCS-5">
          <mxGeometry y="26" width="320" height="8" as="geometry" />
        </mxCell>
        <mxCell id="pgTgq3_JVF9ScQAF9HCS-8" value="+ GetPuzzle(size: Vector2Int, difficulty: Difficulty): Puzzle" style="text;strokeColor=none;fillColor=none;align=left;verticalAlign=top;spacingLeft=4;spacingRight=4;overflow=hidden;rotatable=0;points=[[0,0.5],[1,0.5]];portConstraint=eastwest;" vertex="1" parent="pgTgq3_JVF9ScQAF9HCS-5">
          <mxGeometry y="34" width="320" height="26" as="geometry" />
        </mxCell>
        <mxCell id="i-gNNch0dlM56Vz-WzPD-8" style="edgeStyle=orthogonalEdgeStyle;rounded=0;orthogonalLoop=1;jettySize=auto;html=1;endArrow=diamondThin;endFill=1;endSize=16;" edge="1" parent="2_a15jSnz4EfBw2mQ9b3-1" source="pgTgq3_JVF9ScQAF9HCS-10" target="i-gNNch0dlM56Vz-WzPD-18">
          <mxGeometry relative="1" as="geometry">
            <mxPoint x="450.0344827586207" y="-550" as="targetPoint" />
            <Array as="points">
              <mxPoint x="430" y="-430" />
              <mxPoint x="430" y="-430" />
            </Array>
          </mxGeometry>
        </mxCell>
        <mxCell id="i-gNNch0dlM56Vz-WzPD-16" value="_validator&lt;br&gt;1" style="edgeLabel;html=1;align=center;verticalAlign=middle;resizable=0;points=[];" vertex="1" connectable="0" parent="i-gNNch0dlM56Vz-WzPD-8">
          <mxGeometry x="0.2789" y="-1" relative="1" as="geometry">
            <mxPoint x="-31" y="57" as="offset" />
          </mxGeometry>
        </mxCell>
        <mxCell id="i-gNNch0dlM56Vz-WzPD-13" style="edgeStyle=orthogonalEdgeStyle;rounded=0;orthogonalLoop=1;jettySize=auto;html=1;endArrow=classic;endFill=1;endSize=16;" edge="1" parent="2_a15jSnz4EfBw2mQ9b3-1" source="pgTgq3_JVF9ScQAF9HCS-10" target="i-gNNch0dlM56Vz-WzPD-0">
          <mxGeometry relative="1" as="geometry">
            <Array as="points">
              <mxPoint x="520" y="-303" />
              <mxPoint x="520" y="-303" />
            </Array>
          </mxGeometry>
        </mxCell>
        <mxCell id="i-gNNch0dlM56Vz-WzPD-14" value="_validator&lt;br&gt;1" style="edgeLabel;html=1;align=center;verticalAlign=middle;resizable=0;points=[];" vertex="1" connectable="0" parent="i-gNNch0dlM56Vz-WzPD-13">
          <mxGeometry x="0.251" y="1" relative="1" as="geometry">
            <mxPoint x="-5" y="-31" as="offset" />
          </mxGeometry>
        </mxCell>
        <mxCell id="pgTgq3_JVF9ScQAF9HCS-10" value="PreProcessor" style="swimlane;fontStyle=1;align=center;verticalAlign=top;childLayout=stackLayout;horizontal=1;startSize=26;horizontalStack=0;resizeParent=1;resizeParentMax=0;resizeLast=0;collapsible=1;marginBottom=0;" vertex="1" parent="2_a15jSnz4EfBw2mQ9b3-1">
          <mxGeometry x="220" y="-440" width="260" height="150" as="geometry" />
        </mxCell>
        <mxCell id="pgTgq3_JVF9ScQAF9HCS-11" value="- MaxOptimizationLevel: const int" style="text;strokeColor=none;fillColor=none;align=left;verticalAlign=top;spacingLeft=4;spacingRight=4;overflow=hidden;rotatable=0;points=[[0,0.5],[1,0.5]];portConstraint=eastwest;" vertex="1" parent="pgTgq3_JVF9ScQAF9HCS-10">
          <mxGeometry y="26" width="260" height="26" as="geometry" />
        </mxCell>
        <mxCell id="pgTgq3_JVF9ScQAF9HCS-12" value="" style="line;strokeWidth=1;fillColor=none;align=left;verticalAlign=middle;spacingTop=-1;spacingLeft=3;spacingRight=3;rotatable=0;labelPosition=right;points=[];portConstraint=eastwest;" vertex="1" parent="pgTgq3_JVF9ScQAF9HCS-10">
          <mxGeometry y="52" width="260" height="8" as="geometry" />
        </mxCell>
        <mxCell id="pgTgq3_JVF9ScQAF9HCS-13" value="+ PreProcessor(validator: Validator)&#xa;+ Process(puzzle: Puzzle): Puzzle&#xa;- OtherWallCheck(puzzle: Puzzle, &#xa;        numberedWalls: List&lt;Vector2Int&gt;): bool&#xa;- SatisfyWallIfPossible(posX: int, posY: int,&#xa;        puzzle: Puzzle): bool" style="text;strokeColor=none;fillColor=none;align=left;verticalAlign=top;spacingLeft=4;spacingRight=4;overflow=hidden;rotatable=0;points=[[0,0.5],[1,0.5]];portConstraint=eastwest;" vertex="1" parent="pgTgq3_JVF9ScQAF9HCS-10">
          <mxGeometry y="60" width="260" height="90" as="geometry" />
        </mxCell>
        <mxCell id="pgTgq3_JVF9ScQAF9HCS-15" style="edgeStyle=orthogonalEdgeStyle;rounded=0;orthogonalLoop=1;jettySize=auto;html=1;endArrow=diamondThin;endFill=1;endSize=16;" edge="1" parent="2_a15jSnz4EfBw2mQ9b3-1" source="pgTgq3_JVF9ScQAF9HCS-16">
          <mxGeometry relative="1" as="geometry">
            <mxPoint x="830" y="-860" as="sourcePoint" />
            <mxPoint x="540" y="-1000" as="targetPoint" />
            <Array as="points">
              <mxPoint x="830" y="-970" />
              <mxPoint x="540" y="-970" />
            </Array>
          </mxGeometry>
        </mxCell>
        <mxCell id="i-gNNch0dlM56Vz-WzPD-10" value="_wallNumberApplier&lt;br&gt;1" style="edgeLabel;html=1;align=center;verticalAlign=middle;resizable=0;points=[];" vertex="1" connectable="0" parent="pgTgq3_JVF9ScQAF9HCS-15">
          <mxGeometry x="-0.4318" y="-1" relative="1" as="geometry">
            <mxPoint x="68" y="91" as="offset" />
          </mxGeometry>
        </mxCell>
        <mxCell id="pgTgq3_JVF9ScQAF9HCS-16" value="WallNumberApplier" style="swimlane;fontStyle=1;align=center;verticalAlign=top;childLayout=stackLayout;horizontal=1;startSize=26;horizontalStack=0;resizeParent=1;resizeParentMax=0;resizeLast=0;collapsible=1;marginBottom=0;" vertex="1" parent="2_a15jSnz4EfBw2mQ9b3-1">
          <mxGeometry x="760" y="-820" width="330" height="188" as="geometry" />
        </mxCell>
        <mxCell id="pgTgq3_JVF9ScQAF9HCS-17" value="- _solutionDictionary: Dictionary&lt;Vector2Int, int&gt;&#xa;- _wallDictionary: Dictionary&lt;Vector2Int, int&gt;" style="text;strokeColor=none;fillColor=none;align=left;verticalAlign=top;spacingLeft=4;spacingRight=4;overflow=hidden;rotatable=0;points=[[0,0.5],[1,0.5]];portConstraint=eastwest;" vertex="1" parent="pgTgq3_JVF9ScQAF9HCS-16">
          <mxGeometry y="26" width="330" height="34" as="geometry" />
        </mxCell>
        <mxCell id="pgTgq3_JVF9ScQAF9HCS-18" value="" style="line;strokeWidth=1;fillColor=none;align=left;verticalAlign=middle;spacingTop=-1;spacingLeft=3;spacingRight=3;rotatable=0;labelPosition=right;points=[];portConstraint=eastwest;" vertex="1" parent="pgTgq3_JVF9ScQAF9HCS-16">
          <mxGeometry y="60" width="330" height="8" as="geometry" />
        </mxCell>
        <mxCell id="pgTgq3_JVF9ScQAF9HCS-19" value="+ WallNumberApplier(puzzleSolver: PuzzleSolver)&#xa;+ ApplyNumberOnWalls(puzzle: Puzzle, &#xa;        solutions: List&lt;Solutions&gt;, difficulty: Difficulty): Puzzle&#xa;- CanBeZero(wallPos: Vector2Int, puzzle: Puzzle): bool&#xa;- IncrementWalls(topSolution: Vector2Int)&#xa;- IncrementWallIfPossible(position: Vector2Int)&#xa;- SetUpWallDictionary(puzzle: Puzzle)&#xa;- SetUpSolutionDictionary(solutions: List&lt;Solution&gt;)" style="text;strokeColor=none;fillColor=none;align=left;verticalAlign=top;spacingLeft=4;spacingRight=4;overflow=hidden;rotatable=0;points=[[0,0.5],[1,0.5]];portConstraint=eastwest;" vertex="1" parent="pgTgq3_JVF9ScQAF9HCS-16">
          <mxGeometry y="68" width="330" height="120" as="geometry" />
        </mxCell>
        <mxCell id="i-gNNch0dlM56Vz-WzPD-5" style="edgeStyle=orthogonalEdgeStyle;rounded=0;orthogonalLoop=1;jettySize=auto;html=1;endArrow=diamondThin;endFill=1;endSize=16;" edge="1" parent="2_a15jSnz4EfBw2mQ9b3-1" source="i-gNNch0dlM56Vz-WzPD-18" target="pgTgq3_JVF9ScQAF9HCS-5">
          <mxGeometry relative="1" as="geometry">
            <mxPoint x="440.0344827586207" y="-822" as="sourcePoint" />
            <Array as="points">
              <mxPoint x="470" y="-860" />
              <mxPoint x="470" y="-860" />
            </Array>
          </mxGeometry>
        </mxCell>
        <mxCell id="i-gNNch0dlM56Vz-WzPD-11" value="_puzzleSolver&lt;br&gt;1" style="edgeLabel;html=1;align=center;verticalAlign=middle;resizable=0;points=[];" vertex="1" connectable="0" parent="i-gNNch0dlM56Vz-WzPD-5">
          <mxGeometry x="0.7642" y="2" relative="1" as="geometry">
            <mxPoint x="-38" y="139" as="offset" />
          </mxGeometry>
        </mxCell>
        <mxCell id="i-gNNch0dlM56Vz-WzPD-6" style="edgeStyle=orthogonalEdgeStyle;rounded=0;orthogonalLoop=1;jettySize=auto;html=1;endArrow=classic;endFill=1;endSize=18;" edge="1" parent="2_a15jSnz4EfBw2mQ9b3-1" source="i-gNNch0dlM56Vz-WzPD-18" target="pgTgq3_JVF9ScQAF9HCS-16">
          <mxGeometry relative="1" as="geometry">
            <mxPoint x="650" y="-690.0344827586207" as="sourcePoint" />
            <Array as="points">
              <mxPoint x="690" y="-700" />
              <mxPoint x="690" y="-700" />
            </Array>
          </mxGeometry>
        </mxCell>
        <mxCell id="i-gNNch0dlM56Vz-WzPD-15" value="_puzzleSolver&lt;br&gt;1" style="edgeLabel;html=1;align=center;verticalAlign=middle;resizable=0;points=[];" vertex="1" connectable="0" parent="i-gNNch0dlM56Vz-WzPD-6">
          <mxGeometry x="0.4787" relative="1" as="geometry">
            <mxPoint x="-11" y="-26" as="offset" />
          </mxGeometry>
        </mxCell>
        <mxCell id="i-gNNch0dlM56Vz-WzPD-9" style="edgeStyle=orthogonalEdgeStyle;rounded=0;orthogonalLoop=1;jettySize=auto;html=1;endArrow=diamondThin;endFill=1;endSize=16;" edge="1" parent="2_a15jSnz4EfBw2mQ9b3-1" source="i-gNNch0dlM56Vz-WzPD-0" target="i-gNNch0dlM56Vz-WzPD-18">
          <mxGeometry relative="1" as="geometry">
            <mxPoint x="530.0344827586207" y="-550" as="targetPoint" />
            <Array as="points">
              <mxPoint x="610" y="-450" />
              <mxPoint x="610" y="-450" />
            </Array>
          </mxGeometry>
        </mxCell>
        <mxCell id="i-gNNch0dlM56Vz-WzPD-17" value="_validator&lt;br&gt;1" style="edgeLabel;html=1;align=center;verticalAlign=middle;resizable=0;points=[];" vertex="1" connectable="0" parent="i-gNNch0dlM56Vz-WzPD-9">
          <mxGeometry x="0.0619" y="-2" relative="1" as="geometry">
            <mxPoint x="38" y="44" as="offset" />
          </mxGeometry>
        </mxCell>
        <mxCell id="i-gNNch0dlM56Vz-WzPD-0" value="Validator" style="swimlane;fontStyle=1;align=center;verticalAlign=top;childLayout=stackLayout;horizontal=1;startSize=26;horizontalStack=0;resizeParent=1;resizeParentMax=0;resizeLast=0;collapsible=1;marginBottom=0;" vertex="1" parent="2_a15jSnz4EfBw2mQ9b3-1">
          <mxGeometry x="560" y="-440" width="270" height="194" as="geometry" />
        </mxCell>
        <mxCell id="i-gNNch0dlM56Vz-WzPD-2" value="" style="line;strokeWidth=1;fillColor=none;align=left;verticalAlign=middle;spacingTop=-1;spacingLeft=3;spacingRight=3;rotatable=0;labelPosition=right;points=[];portConstraint=eastwest;" vertex="1" parent="i-gNNch0dlM56Vz-WzPD-0">
          <mxGeometry y="26" width="270" height="8" as="geometry" />
        </mxCell>
        <mxCell id="i-gNNch0dlM56Vz-WzPD-3" value="+ PuzzleIsSolved(puzzle: Puzzle, &#xa;        solution: Solution): bool&#xa;- PuzzleIsFull(puzzle: Puzzle): bool&#xa;- CheckRules(puzzle: Puzzle): bool&#xa;- CheckLamps(puzzle: Puzzle): bool&#xa;- LampsAreCorrectY(x: int, &#xa;        minY: int, maxY: int, puzzle: Puzzle): bool&#xa;- LampsAreCorrectX(y: int,&#xa;        minX: int, maxX: int, puzzle: Puzzle): bool&#xa;+ WallIsSatisfied(posX: int, posY: int,&#xa;        puzzle: Puzzle): bool" style="text;strokeColor=none;fillColor=none;align=left;verticalAlign=top;spacingLeft=4;spacingRight=4;overflow=hidden;rotatable=0;points=[[0,0.5],[1,0.5]];portConstraint=eastwest;rounded=0;" vertex="1" parent="i-gNNch0dlM56Vz-WzPD-0">
          <mxGeometry y="34" width="270" height="160" as="geometry" />
        </mxCell>
        <mxCell id="i-gNNch0dlM56Vz-WzPD-18" value="PuzzleSolver" style="swimlane;fontStyle=1;align=center;verticalAlign=top;childLayout=stackLayout;horizontal=1;startSize=26;horizontalStack=0;resizeParent=1;resizeParentMax=0;resizeLast=0;collapsible=1;marginBottom=0;rounded=0;html=0;" vertex="1" parent="2_a15jSnz4EfBw2mQ9b3-1">
          <mxGeometry x="330" y="-820" width="330" height="260" as="geometry" />
        </mxCell>
        <mxCell id="i-gNNch0dlM56Vz-WzPD-19" value="- _puzzle: Puzzle&#xa;- _finalSolutions: List&lt;Solution&gt;&#xa;- _walls: List&lt;Vector2Int&gt;&#xa;- _implacable: List&lt;Vector2Int&gt;" style="text;strokeColor=none;fillColor=none;align=left;verticalAlign=top;spacingLeft=4;spacingRight=4;overflow=hidden;rotatable=0;points=[[0,0.5],[1,0.5]];portConstraint=eastwest;" vertex="1" parent="i-gNNch0dlM56Vz-WzPD-18">
          <mxGeometry y="26" width="330" height="64" as="geometry" />
        </mxCell>
        <mxCell id="i-gNNch0dlM56Vz-WzPD-20" value="" style="line;strokeWidth=1;fillColor=none;align=left;verticalAlign=middle;spacingTop=-1;spacingLeft=3;spacingRight=3;rotatable=0;labelPosition=right;points=[];portConstraint=eastwest;" vertex="1" parent="i-gNNch0dlM56Vz-WzPD-18">
          <mxGeometry y="90" width="330" height="8" as="geometry" />
        </mxCell>
        <mxCell id="i-gNNch0dlM56Vz-WzPD-21" value="+ FindSolutionsWithEmptyWalls(puzzle: Puzzle,&#xa;        numberOfSolution: int): List&lt;Solution&gt;&#xa;+ FindSingleSolutionWithNumberedWalls(&#xa;        puzzle: Puzzle): List&lt;Solution&gt;&#xa;- BacktrackFunction(solution: Solution, &#xa;        numberedWalls: bool): bool&#xa;- CalculateCandidates(solution Solution): List&lt;Vector2Int&gt;&#xa;- WallsAreUnsatisfiable(puzzle: Puzzle,&#xa;        solution: Solution): bool&#xa;- CanBeSatisfied(posX: int, posY: int&#xa;        puzzle: Puzzle): bool" style="text;strokeColor=none;fillColor=none;align=left;verticalAlign=top;spacingLeft=4;spacingRight=4;overflow=hidden;rotatable=0;points=[[0,0.5],[1,0.5]];portConstraint=eastwest;" vertex="1" parent="i-gNNch0dlM56Vz-WzPD-18">
          <mxGeometry y="98" width="330" height="162" as="geometry" />
        </mxCell>
      </root>
    </mxGraphModel>
  </diagram>
  <diagram id="nFP5aV-RnjTMmnDfZjs7" name="MainMenuClass">
    <mxGraphModel dx="1423" dy="894" grid="1" gridSize="10" guides="1" tooltips="1" connect="1" arrows="1" fold="1" page="1" pageScale="1" pageWidth="850" pageHeight="1100" math="0" shadow="0">
      <root>
        <mxCell id="wPqfk5T0THbMOxcqdn-N-0" />
        <mxCell id="wPqfk5T0THbMOxcqdn-N-1" parent="wPqfk5T0THbMOxcqdn-N-0" />
        <mxCell id="wPqfk5T0THbMOxcqdn-N-2" value="MainMenuController: LevelLoader" style="swimlane;fontStyle=1;align=center;verticalAlign=top;childLayout=stackLayout;horizontal=1;startSize=26;horizontalStack=0;resizeParent=1;resizeParentMax=0;resizeLast=0;collapsible=1;marginBottom=0;rounded=0;html=0;" vertex="1" parent="wPqfk5T0THbMOxcqdn-N-1">
          <mxGeometry x="305" y="220" width="240" height="70" as="geometry" />
        </mxCell>
        <mxCell id="wPqfk5T0THbMOxcqdn-N-4" value="" style="line;strokeWidth=1;fillColor=none;align=left;verticalAlign=middle;spacingTop=-1;spacingLeft=3;spacingRight=3;rotatable=0;labelPosition=right;points=[];portConstraint=eastwest;" vertex="1" parent="wPqfk5T0THbMOxcqdn-N-2">
          <mxGeometry y="26" width="240" height="8" as="geometry" />
        </mxCell>
        <mxCell id="wPqfk5T0THbMOxcqdn-N-5" value="+ Awake()&#xa;+ StartGameOnClick()" style="text;strokeColor=none;fillColor=none;align=left;verticalAlign=top;spacingLeft=4;spacingRight=4;overflow=hidden;rotatable=0;points=[[0,0.5],[1,0.5]];portConstraint=eastwest;" vertex="1" parent="wPqfk5T0THbMOxcqdn-N-2">
          <mxGeometry y="34" width="240" height="36" as="geometry" />
        </mxCell>
        <mxCell id="wPqfk5T0THbMOxcqdn-N-22" style="edgeStyle=orthogonalEdgeStyle;rounded=0;orthogonalLoop=1;jettySize=auto;html=1;endArrow=classic;endFill=1;endSize=16;" edge="1" parent="wPqfk5T0THbMOxcqdn-N-1" source="wPqfk5T0THbMOxcqdn-N-12" target="wPqfk5T0THbMOxcqdn-N-2">
          <mxGeometry relative="1" as="geometry">
            <Array as="points">
              <mxPoint x="370" y="400" />
              <mxPoint x="370" y="400" />
            </Array>
          </mxGeometry>
        </mxCell>
        <mxCell id="wPqfk5T0THbMOxcqdn-N-25" value="_size&lt;br&gt;1" style="edgeLabel;html=1;align=center;verticalAlign=middle;resizable=0;points=[];" vertex="1" connectable="0" parent="wPqfk5T0THbMOxcqdn-N-22">
          <mxGeometry x="0.3889" y="3" relative="1" as="geometry">
            <mxPoint x="-24" y="78" as="offset" />
          </mxGeometry>
        </mxCell>
        <mxCell id="wPqfk5T0THbMOxcqdn-N-23" style="edgeStyle=orthogonalEdgeStyle;rounded=0;orthogonalLoop=1;jettySize=auto;html=1;endArrow=classic;endFill=1;endSize=16;" edge="1" parent="wPqfk5T0THbMOxcqdn-N-1" source="wPqfk5T0THbMOxcqdn-N-17" target="wPqfk5T0THbMOxcqdn-N-2">
          <mxGeometry relative="1" as="geometry">
            <Array as="points">
              <mxPoint x="480" y="350" />
              <mxPoint x="480" y="350" />
            </Array>
          </mxGeometry>
        </mxCell>
        <mxCell id="wPqfk5T0THbMOxcqdn-N-24" value="_difficulty&lt;br&gt;1" style="edgeLabel;html=1;align=center;verticalAlign=middle;resizable=0;points=[];" vertex="1" connectable="0" parent="wPqfk5T0THbMOxcqdn-N-23">
          <mxGeometry x="0.3667" y="-1" relative="1" as="geometry">
            <mxPoint x="27" y="76" as="offset" />
          </mxGeometry>
        </mxCell>
        <mxCell id="wPqfk5T0THbMOxcqdn-N-21" value="Buttons" style="swimlane;rounded=0;html=0;flipH=1;" vertex="1" parent="wPqfk5T0THbMOxcqdn-N-1">
          <mxGeometry x="210" y="360" width="450" height="260" as="geometry" />
        </mxCell>
        <mxCell id="wPqfk5T0THbMOxcqdn-N-12" value="SizeButton: MonoBehaviour" style="swimlane;fontStyle=1;align=center;verticalAlign=top;childLayout=stackLayout;horizontal=1;startSize=26;horizontalStack=0;resizeParent=1;resizeParentMax=0;resizeLast=0;collapsible=1;marginBottom=0;rounded=0;html=0;" vertex="1" parent="wPqfk5T0THbMOxcqdn-N-21">
          <mxGeometry x="20" y="80" width="200" height="140" as="geometry" />
        </mxCell>
        <mxCell id="wPqfk5T0THbMOxcqdn-N-13" value="- _sizeText: Text&#xa;- _currentIndex: int" style="text;strokeColor=none;fillColor=none;align=left;verticalAlign=top;spacingLeft=4;spacingRight=4;overflow=hidden;rotatable=0;points=[[0,0.5],[1,0.5]];portConstraint=eastwest;" vertex="1" parent="wPqfk5T0THbMOxcqdn-N-12">
          <mxGeometry y="26" width="200" height="34" as="geometry" />
        </mxCell>
        <mxCell id="wPqfk5T0THbMOxcqdn-N-14" value="" style="line;strokeWidth=1;fillColor=none;align=left;verticalAlign=middle;spacingTop=-1;spacingLeft=3;spacingRight=3;rotatable=0;labelPosition=right;points=[];portConstraint=eastwest;" vertex="1" parent="wPqfk5T0THbMOxcqdn-N-12">
          <mxGeometry y="60" width="200" height="8" as="geometry" />
        </mxCell>
        <mxCell id="wPqfk5T0THbMOxcqdn-N-15" value="- Awake()&#xa;+ SizeOnClick()&#xa;+ IsValid(): bool&#xa;+ GetValue(): Vector2Int" style="text;strokeColor=none;fillColor=none;align=left;verticalAlign=top;spacingLeft=4;spacingRight=4;overflow=hidden;rotatable=0;points=[[0,0.5],[1,0.5]];portConstraint=eastwest;" vertex="1" parent="wPqfk5T0THbMOxcqdn-N-12">
          <mxGeometry y="68" width="200" height="72" as="geometry" />
        </mxCell>
        <mxCell id="wPqfk5T0THbMOxcqdn-N-17" value="DifficultyButton: MonoBehaviour" style="swimlane;fontStyle=1;align=center;verticalAlign=top;childLayout=stackLayout;horizontal=1;startSize=26;horizontalStack=0;resizeParent=1;resizeParentMax=0;resizeLast=0;collapsible=1;marginBottom=0;rounded=0;html=0;" vertex="1" parent="wPqfk5T0THbMOxcqdn-N-21">
          <mxGeometry x="230" y="80" width="200" height="140" as="geometry" />
        </mxCell>
        <mxCell id="wPqfk5T0THbMOxcqdn-N-18" value="- _difficultyText: Text&#xa;- _currentIndex: int" style="text;strokeColor=none;fillColor=none;align=left;verticalAlign=top;spacingLeft=4;spacingRight=4;overflow=hidden;rotatable=0;points=[[0,0.5],[1,0.5]];portConstraint=eastwest;" vertex="1" parent="wPqfk5T0THbMOxcqdn-N-17">
          <mxGeometry y="26" width="200" height="34" as="geometry" />
        </mxCell>
        <mxCell id="wPqfk5T0THbMOxcqdn-N-19" value="" style="line;strokeWidth=1;fillColor=none;align=left;verticalAlign=middle;spacingTop=-1;spacingLeft=3;spacingRight=3;rotatable=0;labelPosition=right;points=[];portConstraint=eastwest;" vertex="1" parent="wPqfk5T0THbMOxcqdn-N-17">
          <mxGeometry y="60" width="200" height="8" as="geometry" />
        </mxCell>
        <mxCell id="wPqfk5T0THbMOxcqdn-N-20" value="- Awake()&#xa;+ DifficultyOnClick()&#xa;+ IsValid(): bool&#xa;+ GetValue(): Difficulty" style="text;strokeColor=none;fillColor=none;align=left;verticalAlign=top;spacingLeft=4;spacingRight=4;overflow=hidden;rotatable=0;points=[[0,0.5],[1,0.5]];portConstraint=eastwest;" vertex="1" parent="wPqfk5T0THbMOxcqdn-N-17">
          <mxGeometry y="68" width="200" height="72" as="geometry" />
        </mxCell>
      </root>
    </mxGraphModel>
  </diagram>
  <diagram id="AeXdp3-bO54p9FP8TYrK" name="UtilsClass">
    <mxGraphModel dx="981" dy="608" grid="1" gridSize="10" guides="1" tooltips="1" connect="1" arrows="1" fold="1" page="0" pageScale="1" pageWidth="850" pageHeight="1100" math="0" shadow="0">
      <root>
        <mxCell id="iMsi36UIzWOHYIoQ7LcU-0" />
        <mxCell id="iMsi36UIzWOHYIoQ7LcU-1" parent="iMsi36UIzWOHYIoQ7LcU-0" />
        <mxCell id="dUuWu1sVde299XoDPFX9-0" value="DataStructures" style="swimlane;rounded=0;html=0;" parent="iMsi36UIzWOHYIoQ7LcU-1" vertex="1">
          <mxGeometry x="40" y="140" width="350" height="591" as="geometry" />
        </mxCell>
        <mxCell id="dUuWu1sVde299XoDPFX9-1" value="Solution: IEquatable&lt;Solution&gt;" style="swimlane;fontStyle=1;align=center;verticalAlign=top;childLayout=stackLayout;horizontal=1;startSize=26;horizontalStack=0;resizeParent=1;resizeParentMax=0;resizeLast=0;collapsible=1;marginBottom=0;rounded=0;html=0;" parent="dUuWu1sVde299XoDPFX9-0" vertex="1">
          <mxGeometry x="55" y="43" width="230" height="150" as="geometry" />
        </mxCell>
        <mxCell id="dUuWu1sVde299XoDPFX9-2" value="+ Positions: List&lt;Vector2Int&gt;" style="text;strokeColor=none;fillColor=none;align=left;verticalAlign=top;spacingLeft=4;spacingRight=4;overflow=hidden;rotatable=0;points=[[0,0.5],[1,0.5]];portConstraint=eastwest;" parent="dUuWu1sVde299XoDPFX9-1" vertex="1">
          <mxGeometry y="26" width="230" height="26" as="geometry" />
        </mxCell>
        <mxCell id="dUuWu1sVde299XoDPFX9-3" value="" style="line;strokeWidth=1;fillColor=none;align=left;verticalAlign=middle;spacingTop=-1;spacingLeft=3;spacingRight=3;rotatable=0;labelPosition=right;points=[];portConstraint=eastwest;" parent="dUuWu1sVde299XoDPFX9-1" vertex="1">
          <mxGeometry y="52" width="230" height="8" as="geometry" />
        </mxCell>
        <mxCell id="dUuWu1sVde299XoDPFX9-4" value="+ Solution(solution: Solution)&#xa;+ Solution(positions: List&lt;Vector2Int&gt;)&#xa;&#xa;+ Count(): int&#xa;+ Equals(other: Solution): bool&#xa;+ ToString(): string" style="text;strokeColor=none;fillColor=none;align=left;verticalAlign=top;spacingLeft=4;spacingRight=4;overflow=hidden;rotatable=0;points=[[0,0.5],[1,0.5]];portConstraint=eastwest;" parent="dUuWu1sVde299XoDPFX9-1" vertex="1">
          <mxGeometry y="60" width="230" height="90" as="geometry" />
        </mxCell>
        <mxCell id="dUuWu1sVde299XoDPFX9-5" value="Puzzle: IEquatable&lt;Puzzle&gt;" style="swimlane;fontStyle=1;align=center;verticalAlign=top;childLayout=stackLayout;horizontal=1;startSize=26;horizontalStack=0;resizeParent=1;resizeParentMax=0;resizeLast=0;collapsible=1;marginBottom=0;rounded=0;html=0;" parent="dUuWu1sVde299XoDPFX9-0" vertex="1">
          <mxGeometry x="20" y="223" width="310" height="348" as="geometry" />
        </mxCell>
        <mxCell id="dUuWu1sVde299XoDPFX9-6" value="+ DifficultyLevel: Difficulty&#xa;+ PuzzleMatrix: List&lt;List&lt;TileStates&gt;&gt;" style="text;strokeColor=none;fillColor=none;align=left;verticalAlign=top;spacingLeft=4;spacingRight=4;overflow=hidden;rotatable=0;points=[[0,0.5],[1,0.5]];portConstraint=eastwest;" parent="dUuWu1sVde299XoDPFX9-5" vertex="1">
          <mxGeometry y="26" width="310" height="44" as="geometry" />
        </mxCell>
        <mxCell id="dUuWu1sVde299XoDPFX9-7" value="" style="line;strokeWidth=1;fillColor=none;align=left;verticalAlign=middle;spacingTop=-1;spacingLeft=3;spacingRight=3;rotatable=0;labelPosition=right;points=[];portConstraint=eastwest;" parent="dUuWu1sVde299XoDPFX9-5" vertex="1">
          <mxGeometry y="70" width="310" height="8" as="geometry" />
        </mxCell>
        <mxCell id="dUuWu1sVde299XoDPFX9-8" value="+ Puzzle(otherPuzzle: Puzzle)&#xa;+ Puzzle(puzzleMatrix: List&lt;List&lt;TileStates&gt;&gt;)&#xa;+ Puzzle(puzzleMatrix: List&lt;List&lt;TileStates&gt;&gt;,&#xa;        difficluty: Difficulty)&#xa;+ Puzzle(size: Vector2Int)&#xa;&#xa;+ SizeX(): int&#xa;+ SizeY(): int&#xa;+ Equals(): bool&#xa;+ GetElementPositions(&#xa;        tileStates: TileStates): List&lt;Vector2Int&gt;&#xa;+ AddElements(elementPos: List&lt;Vector2Int&gt;,&#xa;        tileStates: TileStates)&#xa;+ ToString(): string&#xa;+ PlaceIsEqual(x: int, y: int ,&#xa;        tileStates: TileStates): bool&#xa;+ SetNeighbour(posX: int, posY: int, value: TileStates)&#xa;+ TurnOnLamps(lampPositions: Solution)&#xa;+ TurnOffLamps()" style="text;strokeColor=none;fillColor=none;align=left;verticalAlign=top;spacingLeft=4;spacingRight=4;overflow=hidden;rotatable=0;points=[[0,0.5],[1,0.5]];portConstraint=eastwest;" parent="dUuWu1sVde299XoDPFX9-5" vertex="1">
          <mxGeometry y="78" width="310" height="270" as="geometry" />
        </mxCell>
        <mxCell id="dUuWu1sVde299XoDPFX9-25" value="Helpers" style="swimlane;rounded=0;html=0;" parent="iMsi36UIzWOHYIoQ7LcU-1" vertex="1">
          <mxGeometry x="840" y="140" width="360" height="430" as="geometry" />
        </mxCell>
        <mxCell id="dUuWu1sVde299XoDPFX9-34" value="LevelLoader: MonoBehaviour" style="swimlane;fontStyle=1;align=center;verticalAlign=top;childLayout=stackLayout;horizontal=1;startSize=26;horizontalStack=0;resizeParent=1;resizeParentMax=0;resizeLast=0;collapsible=1;marginBottom=0;rounded=0;html=0;" parent="dUuWu1sVde299XoDPFX9-25" vertex="1">
          <mxGeometry x="60" y="43" width="240" height="128" as="geometry" />
        </mxCell>
        <mxCell id="dUuWu1sVde299XoDPFX9-35" value="+ static GameSize: Vector2Int&#xa;+ static GameDifficulty: Difficulty" style="text;strokeColor=none;fillColor=none;align=left;verticalAlign=top;spacingLeft=4;spacingRight=4;overflow=hidden;rotatable=0;points=[[0,0.5],[1,0.5]];portConstraint=eastwest;" parent="dUuWu1sVde299XoDPFX9-34" vertex="1">
          <mxGeometry y="26" width="240" height="44" as="geometry" />
        </mxCell>
        <mxCell id="dUuWu1sVde299XoDPFX9-36" value="" style="line;strokeWidth=1;fillColor=none;align=left;verticalAlign=middle;spacingTop=-1;spacingLeft=3;spacingRight=3;rotatable=0;labelPosition=right;points=[];portConstraint=eastwest;" parent="dUuWu1sVde299XoDPFX9-34" vertex="1">
          <mxGeometry y="70" width="240" height="8" as="geometry" />
        </mxCell>
        <mxCell id="dUuWu1sVde299XoDPFX9-37" value="+ LoadNextLevel(nextScene: String, &#xa;        size: Vector2Int, difficulty: Difficulty)&#xa;+ LoadNextLevel(nextScene: String)" style="text;strokeColor=none;fillColor=none;align=left;verticalAlign=top;spacingLeft=4;spacingRight=4;overflow=hidden;rotatable=0;points=[[0,0.5],[1,0.5]];portConstraint=eastwest;" parent="dUuWu1sVde299XoDPFX9-34" vertex="1">
          <mxGeometry y="78" width="240" height="50" as="geometry" />
        </mxCell>
        <mxCell id="dUuWu1sVde299XoDPFX9-30" value="MapperUtil&#xa;&lt;static&gt;" style="swimlane;fontStyle=1;align=center;verticalAlign=top;childLayout=stackLayout;horizontal=1;startSize=40;horizontalStack=0;resizeParent=1;resizeParentMax=0;resizeLast=0;collapsible=1;marginBottom=0;rounded=0;html=0;" parent="dUuWu1sVde299XoDPFX9-25" vertex="1">
          <mxGeometry x="20" y="190" width="320" height="98" as="geometry" />
        </mxCell>
        <mxCell id="dUuWu1sVde299XoDPFX9-31" value="+ static MaxWallByDifficulty: Dictionary&lt;Difficulty, float&gt;&#xa;+ static DifficultyValues: List&lt;Tuple&lt;Difficulty, bool&gt;&gt;&#xa;+ static SizeValues: List&lt;Tuple&lt;Vector2Int, bool&gt;&gt;" style="text;strokeColor=none;fillColor=none;align=left;verticalAlign=top;spacingLeft=4;spacingRight=4;overflow=hidden;rotatable=0;points=[[0,0.5],[1,0.5]];portConstraint=eastwest;" parent="dUuWu1sVde299XoDPFX9-30" vertex="1">
          <mxGeometry y="40" width="320" height="50" as="geometry" />
        </mxCell>
        <mxCell id="dUuWu1sVde299XoDPFX9-32" value="" style="line;strokeWidth=1;fillColor=none;align=left;verticalAlign=middle;spacingTop=-1;spacingLeft=3;spacingRight=3;rotatable=0;labelPosition=right;points=[];portConstraint=eastwest;" parent="dUuWu1sVde299XoDPFX9-30" vertex="1">
          <mxGeometry y="90" width="320" height="8" as="geometry" />
        </mxCell>
        <mxCell id="dUuWu1sVde299XoDPFX9-26" value="PuzzleUtil" style="swimlane;fontStyle=1;align=center;verticalAlign=top;childLayout=stackLayout;horizontal=1;startSize=26;horizontalStack=0;resizeParent=1;resizeParentMax=0;resizeLast=0;collapsible=1;marginBottom=0;rounded=0;html=0;" parent="dUuWu1sVde299XoDPFX9-25" vertex="1">
          <mxGeometry x="50" y="310" width="260" height="100" as="geometry" />
        </mxCell>
        <mxCell id="dUuWu1sVde299XoDPFX9-28" value="" style="line;strokeWidth=1;fillColor=none;align=left;verticalAlign=middle;spacingTop=-1;spacingLeft=3;spacingRight=3;rotatable=0;labelPosition=right;points=[];portConstraint=eastwest;" parent="dUuWu1sVde299XoDPFX9-26" vertex="1">
          <mxGeometry y="26" width="260" height="8" as="geometry" />
        </mxCell>
        <mxCell id="dUuWu1sVde299XoDPFX9-29" value="+ static GetEmptyPuzzleMatrix(&#xa;        size: Vector2Int): List&lt;List&lt;TileStates&gt;&gt;&#xa;+ static IsInTheBoard(posX: int, posY: int,&#xa;        sizeX: int, sizeY: int): bool" style="text;strokeColor=none;fillColor=none;align=left;verticalAlign=top;spacingLeft=4;spacingRight=4;overflow=hidden;rotatable=0;points=[[0,0.5],[1,0.5]];portConstraint=eastwest;" parent="dUuWu1sVde299XoDPFX9-26" vertex="1">
          <mxGeometry y="34" width="260" height="66" as="geometry" />
        </mxCell>
        <mxCell id="EU_8pveOT8SaBNXXtEdZ-0" value="Vertical Container" style="swimlane;" vertex="1" parent="iMsi36UIzWOHYIoQ7LcU-1">
          <mxGeometry x="500" y="800" width="200" height="200" as="geometry" />
        </mxCell>
        <mxCell id="dUuWu1sVde299XoDPFX9-9" value="Enums" style="swimlane;rounded=0;html=0;" parent="iMsi36UIzWOHYIoQ7LcU-1" vertex="1">
          <mxGeometry x="960" y="600" width="500" height="320" as="geometry" />
        </mxCell>
        <mxCell id="dUuWu1sVde299XoDPFX9-10" value="Difficulty" style="swimlane;fontStyle=0;childLayout=stackLayout;horizontal=1;startSize=26;fillColor=none;horizontalStack=0;resizeParent=1;resizeParentMax=0;resizeLast=0;collapsible=1;marginBottom=0;rounded=0;html=0;" parent="dUuWu1sVde299XoDPFX9-9" vertex="1">
          <mxGeometry x="30" y="50" width="140" height="104" as="geometry" />
        </mxCell>
        <mxCell id="dUuWu1sVde299XoDPFX9-11" value="Easy" style="text;strokeColor=none;fillColor=none;align=left;verticalAlign=top;spacingLeft=4;spacingRight=4;overflow=hidden;rotatable=0;points=[[0,0.5],[1,0.5]];portConstraint=eastwest;" parent="dUuWu1sVde299XoDPFX9-10" vertex="1">
          <mxGeometry y="26" width="140" height="26" as="geometry" />
        </mxCell>
        <mxCell id="dUuWu1sVde299XoDPFX9-12" value="Medium" style="text;strokeColor=none;fillColor=none;align=left;verticalAlign=top;spacingLeft=4;spacingRight=4;overflow=hidden;rotatable=0;points=[[0,0.5],[1,0.5]];portConstraint=eastwest;" parent="dUuWu1sVde299XoDPFX9-10" vertex="1">
          <mxGeometry y="52" width="140" height="26" as="geometry" />
        </mxCell>
        <mxCell id="dUuWu1sVde299XoDPFX9-13" value="Hard" style="text;strokeColor=none;fillColor=none;align=left;verticalAlign=top;spacingLeft=4;spacingRight=4;overflow=hidden;rotatable=0;points=[[0,0.5],[1,0.5]];portConstraint=eastwest;" parent="dUuWu1sVde299XoDPFX9-10" vertex="1">
          <mxGeometry y="78" width="140" height="26" as="geometry" />
        </mxCell>
        <mxCell id="dUuWu1sVde299XoDPFX9-14" value="GameState" style="swimlane;fontStyle=0;childLayout=stackLayout;horizontal=1;startSize=26;fillColor=none;horizontalStack=0;resizeParent=1;resizeParentMax=0;resizeLast=0;collapsible=1;marginBottom=0;rounded=0;html=0;" parent="dUuWu1sVde299XoDPFX9-9" vertex="1">
          <mxGeometry x="30" y="187" width="140" height="104" as="geometry" />
        </mxCell>
        <mxCell id="dUuWu1sVde299XoDPFX9-15" value="GameStart" style="text;strokeColor=none;fillColor=none;align=left;verticalAlign=top;spacingLeft=4;spacingRight=4;overflow=hidden;rotatable=0;points=[[0,0.5],[1,0.5]];portConstraint=eastwest;" parent="dUuWu1sVde299XoDPFX9-14" vertex="1">
          <mxGeometry y="26" width="140" height="26" as="geometry" />
        </mxCell>
        <mxCell id="dUuWu1sVde299XoDPFX9-16" value="ActionPhase" style="text;strokeColor=none;fillColor=none;align=left;verticalAlign=top;spacingLeft=4;spacingRight=4;overflow=hidden;rotatable=0;points=[[0,0.5],[1,0.5]];portConstraint=eastwest;" parent="dUuWu1sVde299XoDPFX9-14" vertex="1">
          <mxGeometry y="52" width="140" height="26" as="geometry" />
        </mxCell>
        <mxCell id="dUuWu1sVde299XoDPFX9-17" value="EndTurnPhase" style="text;strokeColor=none;fillColor=none;align=left;verticalAlign=top;spacingLeft=4;spacingRight=4;overflow=hidden;rotatable=0;points=[[0,0.5],[1,0.5]];portConstraint=eastwest;" parent="dUuWu1sVde299XoDPFX9-14" vertex="1">
          <mxGeometry y="78" width="140" height="26" as="geometry" />
        </mxCell>
        <mxCell id="dUuWu1sVde299XoDPFX9-18" value="Classname" style="swimlane;fontStyle=0;childLayout=stackLayout;horizontal=1;startSize=26;fillColor=none;horizontalStack=0;resizeParent=1;resizeParentMax=0;resizeLast=0;collapsible=1;marginBottom=0;rounded=0;html=0;" parent="dUuWu1sVde299XoDPFX9-9" vertex="1">
          <mxGeometry x="190" y="50" width="280" height="176" as="geometry" />
        </mxCell>
        <mxCell id="dUuWu1sVde299XoDPFX9-19" value="Zero = 0, One = 1, Two = 2, Three = 3, Four = 4," style="text;strokeColor=none;fillColor=none;align=left;verticalAlign=top;spacingLeft=4;spacingRight=4;overflow=hidden;rotatable=0;points=[[0,0.5],[1,0.5]];portConstraint=eastwest;" parent="dUuWu1sVde299XoDPFX9-18" vertex="1">
          <mxGeometry y="26" width="280" height="20" as="geometry" />
        </mxCell>
        <mxCell id="dUuWu1sVde299XoDPFX9-20" value="Wall = 5" style="text;strokeColor=none;fillColor=none;align=left;verticalAlign=top;spacingLeft=4;spacingRight=4;overflow=hidden;rotatable=0;points=[[0,0.5],[1,0.5]];portConstraint=eastwest;" parent="dUuWu1sVde299XoDPFX9-18" vertex="1">
          <mxGeometry y="46" width="280" height="26" as="geometry" />
        </mxCell>
        <mxCell id="dUuWu1sVde299XoDPFX9-21" value="Empty" style="text;strokeColor=none;fillColor=none;align=left;verticalAlign=top;spacingLeft=4;spacingRight=4;overflow=hidden;rotatable=0;points=[[0,0.5],[1,0.5]];portConstraint=eastwest;" parent="dUuWu1sVde299XoDPFX9-18" vertex="1">
          <mxGeometry y="72" width="280" height="26" as="geometry" />
        </mxCell>
        <mxCell id="dUuWu1sVde299XoDPFX9-23" value="Implacable" style="text;strokeColor=none;fillColor=none;align=left;verticalAlign=top;spacingLeft=4;spacingRight=4;overflow=hidden;rotatable=0;points=[[0,0.5],[1,0.5]];portConstraint=eastwest;" parent="dUuWu1sVde299XoDPFX9-18" vertex="1">
          <mxGeometry y="98" width="280" height="26" as="geometry" />
        </mxCell>
        <mxCell id="dUuWu1sVde299XoDPFX9-22" value="Lamp" style="text;strokeColor=none;fillColor=none;align=left;verticalAlign=top;spacingLeft=4;spacingRight=4;overflow=hidden;rotatable=0;points=[[0,0.5],[1,0.5]];portConstraint=eastwest;" parent="dUuWu1sVde299XoDPFX9-18" vertex="1">
          <mxGeometry y="124" width="280" height="26" as="geometry" />
        </mxCell>
        <mxCell id="dUuWu1sVde299XoDPFX9-24" value="Lit" style="text;strokeColor=none;fillColor=none;align=left;verticalAlign=top;spacingLeft=4;spacingRight=4;overflow=hidden;rotatable=0;points=[[0,0.5],[1,0.5]];portConstraint=eastwest;" parent="dUuWu1sVde299XoDPFX9-18" vertex="1">
          <mxGeometry y="150" width="280" height="26" as="geometry" />
        </mxCell>
      </root>
    </mxGraphModel>
  </diagram>
  <diagram id="fkAGbWkQZ-dwUHnQ3ew0" name="Win">
    <mxGraphModel dx="1423" dy="894" grid="1" gridSize="10" guides="1" tooltips="1" connect="1" arrows="1" fold="1" page="1" pageScale="1" pageWidth="850" pageHeight="1100" math="0" shadow="0">
      <root>
        <mxCell id="dlTxc5GTsmj3sb2KCX8j-0" />
        <mxCell id="dlTxc5GTsmj3sb2KCX8j-1" parent="dlTxc5GTsmj3sb2KCX8j-0" />
        <mxCell id="dlTxc5GTsmj3sb2KCX8j-2" value="WinController : LevelLoader" style="swimlane;fontStyle=1;align=center;verticalAlign=top;childLayout=stackLayout;horizontal=1;startSize=26;horizontalStack=0;resizeParent=1;resizeParentMax=0;resizeLast=0;collapsible=1;marginBottom=0;rounded=0;html=0;" vertex="1" parent="dlTxc5GTsmj3sb2KCX8j-1">
          <mxGeometry x="230" y="200" width="200" height="60" as="geometry" />
        </mxCell>
        <mxCell id="dlTxc5GTsmj3sb2KCX8j-4" value="" style="line;strokeWidth=1;fillColor=none;align=left;verticalAlign=middle;spacingTop=-1;spacingLeft=3;spacingRight=3;rotatable=0;labelPosition=right;points=[];portConstraint=eastwest;" vertex="1" parent="dlTxc5GTsmj3sb2KCX8j-2">
          <mxGeometry y="26" width="200" height="8" as="geometry" />
        </mxCell>
        <mxCell id="dlTxc5GTsmj3sb2KCX8j-5" value="- Update()" style="text;strokeColor=none;fillColor=none;align=left;verticalAlign=top;spacingLeft=4;spacingRight=4;overflow=hidden;rotatable=0;points=[[0,0.5],[1,0.5]];portConstraint=eastwest;" vertex="1" parent="dlTxc5GTsmj3sb2KCX8j-2">
          <mxGeometry y="34" width="200" height="26" as="geometry" />
        </mxCell>
      </root>
    </mxGraphModel>
  </diagram>
  <diagram id="7XwBs2i_J8cXjoyh7PzL" name="Game">
    <mxGraphModel dx="2831" dy="1260" grid="1" gridSize="10" guides="1" tooltips="1" connect="1" arrows="1" fold="1" page="0" pageScale="1" pageWidth="850" pageHeight="1100" math="0" shadow="0">
      <root>
        <mxCell id="6ifigzL0VCHDWYNqE75a-0" />
        <mxCell id="6ifigzL0VCHDWYNqE75a-1" parent="6ifigzL0VCHDWYNqE75a-0" />
        <mxCell id="6ifigzL0VCHDWYNqE75a-2" value="GameController : LevelLoader" style="swimlane;fontStyle=1;align=center;verticalAlign=top;childLayout=stackLayout;horizontal=1;startSize=26;horizontalStack=0;resizeParent=1;resizeParentMax=0;resizeLast=0;collapsible=1;marginBottom=0;rounded=0;html=0;" parent="6ifigzL0VCHDWYNqE75a-1" vertex="1">
          <mxGeometry x="-50" y="90" width="270" height="134" as="geometry" />
        </mxCell>
        <mxCell id="6ifigzL0VCHDWYNqE75a-3" value="- _algorithmController: AlgorithmController" style="text;strokeColor=none;fillColor=none;align=left;verticalAlign=top;spacingLeft=4;spacingRight=4;overflow=hidden;rotatable=0;points=[[0,0.5],[1,0.5]];portConstraint=eastwest;" parent="6ifigzL0VCHDWYNqE75a-2" vertex="1">
          <mxGeometry y="26" width="270" height="20" as="geometry" />
        </mxCell>
        <mxCell id="6ifigzL0VCHDWYNqE75a-4" value="" style="line;strokeWidth=1;fillColor=none;align=left;verticalAlign=middle;spacingTop=-1;spacingLeft=3;spacingRight=3;rotatable=0;labelPosition=right;points=[];portConstraint=eastwest;" parent="6ifigzL0VCHDWYNqE75a-2" vertex="1">
          <mxGeometry y="46" width="270" height="8" as="geometry" />
        </mxCell>
        <mxCell id="6ifigzL0VCHDWYNqE75a-5" value="- Awake()&#xa;- Update()&#xa;- OnSelection(selectedTile: GoodTileController)&#xa;- SetUpGame()&#xa;- GameOver()" style="text;strokeColor=none;fillColor=none;align=left;verticalAlign=top;spacingLeft=4;spacingRight=4;overflow=hidden;rotatable=0;points=[[0,0.5],[1,0.5]];portConstraint=eastwest;" parent="6ifigzL0VCHDWYNqE75a-2" vertex="1">
          <mxGeometry y="54" width="270" height="80" as="geometry" />
        </mxCell>
        <mxCell id="6ifigzL0VCHDWYNqE75a-39" value="Board" style="swimlane;rounded=0;html=0;" parent="6ifigzL0VCHDWYNqE75a-1" vertex="1">
          <mxGeometry x="140" y="300" width="790" height="829" as="geometry" />
        </mxCell>
        <mxCell id="6ifigzL0VCHDWYNqE75a-15" value="GameBoardController : MonoBehaviour" style="swimlane;fontStyle=1;align=center;verticalAlign=top;childLayout=stackLayout;horizontal=1;startSize=26;horizontalStack=0;resizeParent=1;resizeParentMax=0;resizeLast=0;collapsible=1;marginBottom=0;rounded=0;html=0;" parent="6ifigzL0VCHDWYNqE75a-39" vertex="1">
          <mxGeometry x="155" y="90" width="260" height="158" as="geometry" />
        </mxCell>
        <mxCell id="6ifigzL0VCHDWYNqE75a-16" value="+ offset: float&#xa;+ Puzzle: Puzzle&#xa;+ baseSize: Vector2&#xa;+ TileMatrix: List&lt;List&lt;TileBase&gt;&gt;" style="text;strokeColor=none;fillColor=none;align=left;verticalAlign=top;spacingLeft=4;spacingRight=4;overflow=hidden;rotatable=0;points=[[0,0.5],[1,0.5]];portConstraint=eastwest;" parent="6ifigzL0VCHDWYNqE75a-15" vertex="1">
          <mxGeometry y="26" width="260" height="60" as="geometry" />
        </mxCell>
        <mxCell id="6ifigzL0VCHDWYNqE75a-17" value="" style="line;strokeWidth=1;fillColor=none;align=left;verticalAlign=middle;spacingTop=-1;spacingLeft=3;spacingRight=3;rotatable=0;labelPosition=right;points=[];portConstraint=eastwest;" parent="6ifigzL0VCHDWYNqE75a-15" vertex="1">
          <mxGeometry y="86" width="260" height="8" as="geometry" />
        </mxCell>
        <mxCell id="6ifigzL0VCHDWYNqE75a-18" value="+ Populate(onSelecton: IsSelectedDelegate)&#xa;- CalculateNeighbours()&#xa;+ LightOnAt(selectedTilePosition: Vector2)&#xa;+ LightOffAt(selectedTilePosition: Vector2) " style="text;strokeColor=none;fillColor=none;align=left;verticalAlign=top;spacingLeft=4;spacingRight=4;overflow=hidden;rotatable=0;points=[[0,0.5],[1,0.5]];portConstraint=eastwest;" parent="6ifigzL0VCHDWYNqE75a-15" vertex="1">
          <mxGeometry y="94" width="260" height="64" as="geometry" />
        </mxCell>
        <mxCell id="6ifigzL0VCHDWYNqE75a-38" style="edgeStyle=orthogonalEdgeStyle;rounded=0;orthogonalLoop=1;jettySize=auto;html=1;endArrow=diamondThin;endFill=1;endSize=16;" parent="6ifigzL0VCHDWYNqE75a-39" source="6ifigzL0VCHDWYNqE75a-19" target="6ifigzL0VCHDWYNqE75a-15" edge="1">
          <mxGeometry relative="1" as="geometry" />
        </mxCell>
        <mxCell id="6ifigzL0VCHDWYNqE75a-40" value="Tile" style="swimlane;rounded=0;html=0;" parent="6ifigzL0VCHDWYNqE75a-39" vertex="1">
          <mxGeometry x="20" y="287" width="750" height="522" as="geometry" />
        </mxCell>
        <mxCell id="6ifigzL0VCHDWYNqE75a-19" value="TileBase : MonoBehaviour&#xa;&lt;abstract&gt;" style="swimlane;fontStyle=1;align=center;verticalAlign=top;childLayout=stackLayout;horizontal=1;startSize=36;horizontalStack=0;resizeParent=1;resizeParentMax=0;resizeLast=0;collapsible=1;marginBottom=0;rounded=0;html=0;" parent="6ifigzL0VCHDWYNqE75a-40" vertex="1">
          <mxGeometry x="170" y="63" width="190" height="169" as="geometry" />
        </mxCell>
        <mxCell id="6ifigzL0VCHDWYNqE75a-20" value="+ isSelected: bool&#xa;+ neighbours: List&lt;TileBase&gt;&#xa;+position: Vector2" style="text;strokeColor=none;fillColor=none;align=left;verticalAlign=top;spacingLeft=4;spacingRight=4;overflow=hidden;rotatable=0;points=[[0,0.5],[1,0.5]];portConstraint=eastwest;" parent="6ifigzL0VCHDWYNqE75a-19" vertex="1">
          <mxGeometry y="36" width="190" height="60" as="geometry" />
        </mxCell>
        <mxCell id="6ifigzL0VCHDWYNqE75a-21" value="" style="line;strokeWidth=1;fillColor=none;align=left;verticalAlign=middle;spacingTop=-1;spacingLeft=3;spacingRight=3;rotatable=0;labelPosition=right;points=[];portConstraint=eastwest;" parent="6ifigzL0VCHDWYNqE75a-19" vertex="1">
          <mxGeometry y="96" width="190" height="8" as="geometry" />
        </mxCell>
        <mxCell id="6ifigzL0VCHDWYNqE75a-22" value="- Awake()&#xa;+ abstract LightOn(): bool&#xa;+ abstract LightOff(): bool&#xa;+ abstract IsValid(): bool" style="text;strokeColor=none;fillColor=none;align=left;verticalAlign=top;spacingLeft=4;spacingRight=4;overflow=hidden;rotatable=0;points=[[0,0.5],[1,0.5]];portConstraint=eastwest;" parent="6ifigzL0VCHDWYNqE75a-19" vertex="1">
          <mxGeometry y="104" width="190" height="65" as="geometry" />
        </mxCell>
        <mxCell id="6ifigzL0VCHDWYNqE75a-23" value="TileRenderer : MonoBehaviour" style="swimlane;fontStyle=1;align=center;verticalAlign=top;childLayout=stackLayout;horizontal=1;startSize=26;horizontalStack=0;resizeParent=1;resizeParentMax=0;resizeLast=0;collapsible=1;marginBottom=0;rounded=0;html=0;" parent="6ifigzL0VCHDWYNqE75a-40" vertex="1">
          <mxGeometry x="520" y="63" width="210" height="214" as="geometry" />
        </mxCell>
        <mxCell id="6ifigzL0VCHDWYNqE75a-24" value="- _renderer: MeshRenderer&#xa;- _animator: Animator&#xa;- _textMesh: TextMesh&#xa;- static Color1: int" style="text;strokeColor=none;fillColor=none;align=left;verticalAlign=top;spacingLeft=4;spacingRight=4;overflow=hidden;rotatable=0;points=[[0,0.5],[1,0.5]];portConstraint=eastwest;" parent="6ifigzL0VCHDWYNqE75a-23" vertex="1">
          <mxGeometry y="26" width="210" height="60" as="geometry" />
        </mxCell>
        <mxCell id="6ifigzL0VCHDWYNqE75a-25" value="" style="line;strokeWidth=1;fillColor=none;align=left;verticalAlign=middle;spacingTop=-1;spacingLeft=3;spacingRight=3;rotatable=0;labelPosition=right;points=[];portConstraint=eastwest;" parent="6ifigzL0VCHDWYNqE75a-23" vertex="1">
          <mxGeometry y="86" width="210" height="8" as="geometry" />
        </mxCell>
        <mxCell id="6ifigzL0VCHDWYNqE75a-26" value="+ SetUp()&#xa;+ NotAllowed()&#xa;+ Allowed()&#xa;+ AddSelection()&#xa;+ RemoveSelection()&#xa;+ TurnOn()&#xa;+ TurnOff()&#xa;+ SetNumber(value: int)" style="text;strokeColor=none;fillColor=none;align=left;verticalAlign=top;spacingLeft=4;spacingRight=4;overflow=hidden;rotatable=0;points=[[0,0.5],[1,0.5]];portConstraint=eastwest;" parent="6ifigzL0VCHDWYNqE75a-23" vertex="1">
          <mxGeometry y="94" width="210" height="120" as="geometry" />
        </mxCell>
        <mxCell id="6ifigzL0VCHDWYNqE75a-35" style="edgeStyle=orthogonalEdgeStyle;rounded=0;orthogonalLoop=1;jettySize=auto;html=1;endArrow=block;endFill=0;endSize=16;" parent="6ifigzL0VCHDWYNqE75a-40" source="6ifigzL0VCHDWYNqE75a-27" target="6ifigzL0VCHDWYNqE75a-19" edge="1">
          <mxGeometry relative="1" as="geometry">
            <Array as="points">
              <mxPoint x="210" y="289" />
              <mxPoint x="210" y="289" />
            </Array>
          </mxGeometry>
        </mxCell>
        <mxCell id="6ifigzL0VCHDWYNqE75a-27" value="GoodTileController : TileBase" style="swimlane;fontStyle=1;align=center;verticalAlign=top;childLayout=stackLayout;horizontal=1;startSize=26;horizontalStack=0;resizeParent=1;resizeParentMax=0;resizeLast=0;collapsible=1;marginBottom=0;rounded=0;html=0;" parent="6ifigzL0VCHDWYNqE75a-40" vertex="1">
          <mxGeometry x="20" y="339" width="230" height="160" as="geometry" />
        </mxCell>
        <mxCell id="6ifigzL0VCHDWYNqE75a-28" value="+ event OnSelect: IsSelectedDelegate&#xa;- lightCounter: int" style="text;strokeColor=none;fillColor=none;align=left;verticalAlign=top;spacingLeft=4;spacingRight=4;overflow=hidden;rotatable=0;points=[[0,0.5],[1,0.5]];portConstraint=eastwest;" parent="6ifigzL0VCHDWYNqE75a-27" vertex="1">
          <mxGeometry y="26" width="230" height="44" as="geometry" />
        </mxCell>
        <mxCell id="6ifigzL0VCHDWYNqE75a-29" value="" style="line;strokeWidth=1;fillColor=none;align=left;verticalAlign=middle;spacingTop=-1;spacingLeft=3;spacingRight=3;rotatable=0;labelPosition=right;points=[];portConstraint=eastwest;" parent="6ifigzL0VCHDWYNqE75a-27" vertex="1">
          <mxGeometry y="70" width="230" height="8" as="geometry" />
        </mxCell>
        <mxCell id="6ifigzL0VCHDWYNqE75a-30" value="+ IsLighted(): bool&#xa;+ override LightOn(): bool&#xa;+ override LightOff(): bool&#xa;+ override IsValid(): bool&#xa;- OnMouseDown()" style="text;strokeColor=none;fillColor=none;align=left;verticalAlign=top;spacingLeft=4;spacingRight=4;overflow=hidden;rotatable=0;points=[[0,0.5],[1,0.5]];portConstraint=eastwest;" parent="6ifigzL0VCHDWYNqE75a-27" vertex="1">
          <mxGeometry y="78" width="230" height="82" as="geometry" />
        </mxCell>
        <mxCell id="6ifigzL0VCHDWYNqE75a-36" style="edgeStyle=orthogonalEdgeStyle;rounded=0;orthogonalLoop=1;jettySize=auto;html=1;endArrow=block;endFill=0;endSize=16;" parent="6ifigzL0VCHDWYNqE75a-40" source="6ifigzL0VCHDWYNqE75a-31" target="6ifigzL0VCHDWYNqE75a-19" edge="1">
          <mxGeometry relative="1" as="geometry">
            <Array as="points">
              <mxPoint x="330" y="289" />
              <mxPoint x="330" y="289" />
            </Array>
          </mxGeometry>
        </mxCell>
        <mxCell id="6ifigzL0VCHDWYNqE75a-31" value="BadTileController : TileBase" style="swimlane;fontStyle=1;align=center;verticalAlign=top;childLayout=stackLayout;horizontal=1;startSize=26;horizontalStack=0;resizeParent=1;resizeParentMax=0;resizeLast=0;collapsible=1;marginBottom=0;rounded=0;html=0;" parent="6ifigzL0VCHDWYNqE75a-40" vertex="1">
          <mxGeometry x="290" y="339" width="200" height="125" as="geometry" />
        </mxCell>
        <mxCell id="6ifigzL0VCHDWYNqE75a-32" value="- _myNumber: int" style="text;strokeColor=none;fillColor=none;align=left;verticalAlign=top;spacingLeft=4;spacingRight=4;overflow=hidden;rotatable=0;points=[[0,0.5],[1,0.5]];portConstraint=eastwest;" parent="6ifigzL0VCHDWYNqE75a-31" vertex="1">
          <mxGeometry y="26" width="200" height="26" as="geometry" />
        </mxCell>
        <mxCell id="6ifigzL0VCHDWYNqE75a-33" value="" style="line;strokeWidth=1;fillColor=none;align=left;verticalAlign=middle;spacingTop=-1;spacingLeft=3;spacingRight=3;rotatable=0;labelPosition=right;points=[];portConstraint=eastwest;" parent="6ifigzL0VCHDWYNqE75a-31" vertex="1">
          <mxGeometry y="52" width="200" height="8" as="geometry" />
        </mxCell>
        <mxCell id="6ifigzL0VCHDWYNqE75a-34" value="+ MyNumber:set(value: int)&#xa;+ override LightOn(): bool&#xa;+ override LightOff(): bool&#xa;+ override IsValid(): bool" style="text;strokeColor=none;fillColor=none;align=left;verticalAlign=top;spacingLeft=4;spacingRight=4;overflow=hidden;rotatable=0;points=[[0,0.5],[1,0.5]];portConstraint=eastwest;" parent="6ifigzL0VCHDWYNqE75a-31" vertex="1">
          <mxGeometry y="60" width="200" height="65" as="geometry" />
        </mxCell>
        <mxCell id="6ifigzL0VCHDWYNqE75a-37" style="edgeStyle=orthogonalEdgeStyle;rounded=0;orthogonalLoop=1;jettySize=auto;html=1;fontSize=12;fontStyle=1;verticalAlign=top;fillColor=#2a2a2a;startSize=26;" parent="6ifigzL0VCHDWYNqE75a-40" edge="1">
          <mxGeometry relative="1" as="geometry">
            <mxPoint x="520" y="180" as="sourcePoint" />
            <mxPoint x="359.99999999999955" y="180" as="targetPoint" />
            <Array as="points">
              <mxPoint x="400" y="180" />
              <mxPoint x="400" y="180" />
            </Array>
          </mxGeometry>
        </mxCell>
        <mxCell id="6ifigzL0VCHDWYNqE75a-44" value="MyTileRenderer&lt;br&gt;1" style="edgeLabel;html=1;align=center;verticalAlign=middle;resizable=0;points=[];" parent="6ifigzL0VCHDWYNqE75a-37" vertex="1" connectable="0">
          <mxGeometry x="0.2485" y="1" relative="1" as="geometry">
            <mxPoint x="10" y="-22" as="offset" />
          </mxGeometry>
        </mxCell>
        <mxCell id="6ifigzL0VCHDWYNqE75a-41" style="edgeStyle=orthogonalEdgeStyle;rounded=0;orthogonalLoop=1;jettySize=auto;html=1;endArrow=classic;endFill=1;endSize=16;" parent="6ifigzL0VCHDWYNqE75a-1" source="6ifigzL0VCHDWYNqE75a-15" target="6ifigzL0VCHDWYNqE75a-2" edge="1">
          <mxGeometry relative="1" as="geometry">
            <Array as="points">
              <mxPoint x="425" y="157" />
            </Array>
          </mxGeometry>
        </mxCell>
        <mxCell id="6ifigzL0VCHDWYNqE75a-45" value="_gameBoardController&lt;br&gt;1" style="edgeLabel;html=1;align=center;verticalAlign=middle;resizable=0;points=[];" parent="6ifigzL0VCHDWYNqE75a-41" vertex="1" connectable="0">
          <mxGeometry x="-0.0564" y="3" relative="1" as="geometry">
            <mxPoint x="-62" y="177" as="offset" />
          </mxGeometry>
        </mxCell>
        <mxCell id="6ifigzL0VCHDWYNqE75a-42" style="edgeStyle=orthogonalEdgeStyle;rounded=0;orthogonalLoop=1;jettySize=auto;html=1;endArrow=diamondThin;endFill=1;endSize=16;startArrow=classic;startFill=1;startSize=16;" parent="6ifigzL0VCHDWYNqE75a-1" source="6ifigzL0VCHDWYNqE75a-6" target="6ifigzL0VCHDWYNqE75a-2" edge="1">
          <mxGeometry relative="1" as="geometry">
            <Array as="points">
              <mxPoint x="-185" y="170" />
            </Array>
          </mxGeometry>
        </mxCell>
        <mxCell id="6ifigzL0VCHDWYNqE75a-47" value="_gameBoardValidator&lt;br&gt;1" style="edgeLabel;html=1;align=center;verticalAlign=middle;resizable=0;points=[];" parent="6ifigzL0VCHDWYNqE75a-42" vertex="1" connectable="0">
          <mxGeometry x="-0.8494" y="4" relative="1" as="geometry">
            <mxPoint x="-61" y="-12" as="offset" />
          </mxGeometry>
        </mxCell>
        <mxCell id="6ifigzL0VCHDWYNqE75a-43" style="edgeStyle=orthogonalEdgeStyle;rounded=0;orthogonalLoop=1;jettySize=auto;html=1;endArrow=diamondThin;endFill=1;endSize=16;" parent="6ifigzL0VCHDWYNqE75a-1" source="6ifigzL0VCHDWYNqE75a-10" target="6ifigzL0VCHDWYNqE75a-2" edge="1">
          <mxGeometry relative="1" as="geometry" />
        </mxCell>
        <mxCell id="6ifigzL0VCHDWYNqE75a-46" value="_gameStateMachine&lt;br&gt;1" style="edgeLabel;html=1;align=center;verticalAlign=middle;resizable=0;points=[];" parent="6ifigzL0VCHDWYNqE75a-43" vertex="1" connectable="0">
          <mxGeometry x="-0.4682" y="-1" relative="1" as="geometry">
            <mxPoint x="-29" y="24" as="offset" />
          </mxGeometry>
        </mxCell>
        <mxCell id="6ifigzL0VCHDWYNqE75a-14" value="Vertical Container" style="swimlane;rounded=0;html=0;" parent="6ifigzL0VCHDWYNqE75a-1" vertex="1">
          <mxGeometry x="-350" y="350" width="330" height="353" as="geometry" />
        </mxCell>
        <mxCell id="6ifigzL0VCHDWYNqE75a-6" value="GameBoardValidator" style="swimlane;fontStyle=1;align=center;verticalAlign=top;childLayout=stackLayout;horizontal=1;startSize=26;horizontalStack=0;resizeParent=1;resizeParentMax=0;resizeLast=0;collapsible=1;marginBottom=0;rounded=0;html=0;" parent="6ifigzL0VCHDWYNqE75a-14" vertex="1">
          <mxGeometry x="20" y="110" width="290" height="84" as="geometry" />
        </mxCell>
        <mxCell id="6ifigzL0VCHDWYNqE75a-8" value="" style="line;strokeWidth=1;fillColor=none;align=left;verticalAlign=middle;spacingTop=-1;spacingLeft=3;spacingRight=3;rotatable=0;labelPosition=right;points=[];portConstraint=eastwest;" parent="6ifigzL0VCHDWYNqE75a-6" vertex="1">
          <mxGeometry y="26" width="290" height="8" as="geometry" />
        </mxCell>
        <mxCell id="6ifigzL0VCHDWYNqE75a-9" value="+ GameBoardValidator(&#xa;        gameBoardController: GameBoardController)&#xa;+ BoardIsValid(): bool" style="text;strokeColor=none;fillColor=none;align=left;verticalAlign=top;spacingLeft=4;spacingRight=4;overflow=hidden;rotatable=0;points=[[0,0.5],[1,0.5]];portConstraint=eastwest;" parent="6ifigzL0VCHDWYNqE75a-6" vertex="1">
          <mxGeometry y="34" width="290" height="50" as="geometry" />
        </mxCell>
        <mxCell id="6ifigzL0VCHDWYNqE75a-10" value="GameStateMachine" style="swimlane;fontStyle=1;align=center;verticalAlign=top;childLayout=stackLayout;horizontal=1;startSize=26;horizontalStack=0;resizeParent=1;resizeParentMax=0;resizeLast=0;collapsible=1;marginBottom=0;rounded=0;html=0;" parent="6ifigzL0VCHDWYNqE75a-14" vertex="1">
          <mxGeometry x="65" y="240" width="200" height="90" as="geometry" />
        </mxCell>
        <mxCell id="6ifigzL0VCHDWYNqE75a-11" value="+ CurrentGameState: GameState&#xa;+ NewPhase: bool" style="text;strokeColor=none;fillColor=none;align=left;verticalAlign=top;spacingLeft=4;spacingRight=4;overflow=hidden;rotatable=0;points=[[0,0.5],[1,0.5]];portConstraint=eastwest;" parent="6ifigzL0VCHDWYNqE75a-10" vertex="1">
          <mxGeometry y="26" width="200" height="30" as="geometry" />
        </mxCell>
        <mxCell id="6ifigzL0VCHDWYNqE75a-12" value="" style="line;strokeWidth=1;fillColor=none;align=left;verticalAlign=middle;spacingTop=-1;spacingLeft=3;spacingRight=3;rotatable=0;labelPosition=right;points=[];portConstraint=eastwest;" parent="6ifigzL0VCHDWYNqE75a-10" vertex="1">
          <mxGeometry y="56" width="200" height="8" as="geometry" />
        </mxCell>
        <mxCell id="6ifigzL0VCHDWYNqE75a-13" value="+ NextPhase()" style="text;strokeColor=none;fillColor=none;align=left;verticalAlign=top;spacingLeft=4;spacingRight=4;overflow=hidden;rotatable=0;points=[[0,0.5],[1,0.5]];portConstraint=eastwest;" parent="6ifigzL0VCHDWYNqE75a-10" vertex="1">
          <mxGeometry y="64" width="200" height="26" as="geometry" />
        </mxCell>
        <mxCell id="6ifigzL0VCHDWYNqE75a-48" value="_gameBoardController&lt;br&gt;1" style="edgeLabel;html=1;align=center;verticalAlign=middle;resizable=0;points=[];" parent="6ifigzL0VCHDWYNqE75a-1" vertex="1" connectable="0">
          <mxGeometry x="-109.99882352941171" y="189.99529411764706" as="geometry" />
        </mxCell>
        <mxCell id="HYIUC6LWzrxPF-WGrph0-0" value="GameController : LevelLoader" style="swimlane;fontStyle=1;align=center;verticalAlign=top;childLayout=stackLayout;horizontal=1;startSize=26;horizontalStack=0;resizeParent=1;resizeParentMax=0;resizeLast=0;collapsible=1;marginBottom=0;rounded=0;html=0;" vertex="1" parent="6ifigzL0VCHDWYNqE75a-1">
          <mxGeometry x="1390" y="90" width="270" height="134" as="geometry" />
        </mxCell>
        <mxCell id="HYIUC6LWzrxPF-WGrph0-1" value="- _algorithmController: AlgorithmController" style="text;strokeColor=none;fillColor=none;align=left;verticalAlign=top;spacingLeft=4;spacingRight=4;overflow=hidden;rotatable=0;points=[[0,0.5],[1,0.5]];portConstraint=eastwest;" vertex="1" parent="HYIUC6LWzrxPF-WGrph0-0">
          <mxGeometry y="26" width="270" height="20" as="geometry" />
        </mxCell>
        <mxCell id="HYIUC6LWzrxPF-WGrph0-2" value="" style="line;strokeWidth=1;fillColor=none;align=left;verticalAlign=middle;spacingTop=-1;spacingLeft=3;spacingRight=3;rotatable=0;labelPosition=right;points=[];portConstraint=eastwest;" vertex="1" parent="HYIUC6LWzrxPF-WGrph0-0">
          <mxGeometry y="46" width="270" height="8" as="geometry" />
        </mxCell>
        <mxCell id="HYIUC6LWzrxPF-WGrph0-3" value="- Awake()&#xa;- Update()&#xa;- OnSelection(selectedTile: GoodTileController)&#xa;- SetUpGame()&#xa;- GameOver()" style="text;strokeColor=none;fillColor=none;align=left;verticalAlign=top;spacingLeft=4;spacingRight=4;overflow=hidden;rotatable=0;points=[[0,0.5],[1,0.5]];portConstraint=eastwest;" vertex="1" parent="HYIUC6LWzrxPF-WGrph0-0">
          <mxGeometry y="54" width="270" height="80" as="geometry" />
        </mxCell>
        <mxCell id="HYIUC6LWzrxPF-WGrph0-4" value="Board" style="swimlane;rounded=0;html=0;" vertex="1" parent="6ifigzL0VCHDWYNqE75a-1">
          <mxGeometry x="1590" y="250" width="640" height="460" as="geometry" />
        </mxCell>
        <mxCell id="HYIUC6LWzrxPF-WGrph0-9" style="edgeStyle=orthogonalEdgeStyle;rounded=0;orthogonalLoop=1;jettySize=auto;html=1;endArrow=diamondThin;endFill=1;endSize=16;" edge="1" parent="HYIUC6LWzrxPF-WGrph0-4" source="HYIUC6LWzrxPF-WGrph0-49" target="HYIUC6LWzrxPF-WGrph0-48">
          <mxGeometry relative="1" as="geometry">
            <mxPoint x="285" y="350" as="sourcePoint" />
            <mxPoint x="285" y="248" as="targetPoint" />
            <Array as="points">
              <mxPoint x="220" y="230" />
              <mxPoint x="220" y="230" />
            </Array>
          </mxGeometry>
        </mxCell>
        <mxCell id="HYIUC6LWzrxPF-WGrph0-10" value="Tile" style="swimlane;rounded=0;html=0;" vertex="1" parent="HYIUC6LWzrxPF-WGrph0-4">
          <mxGeometry x="40" y="170" width="570" height="260" as="geometry" />
        </mxCell>
        <mxCell id="HYIUC6LWzrxPF-WGrph0-19" style="edgeStyle=orthogonalEdgeStyle;rounded=0;orthogonalLoop=1;jettySize=auto;html=1;endArrow=block;endFill=0;endSize=16;" edge="1" parent="HYIUC6LWzrxPF-WGrph0-10" source="HYIUC6LWzrxPF-WGrph0-51" target="HYIUC6LWzrxPF-WGrph0-49">
          <mxGeometry relative="1" as="geometry">
            <Array as="points">
              <mxPoint x="180" y="153" />
              <mxPoint x="180" y="153" />
            </Array>
            <mxPoint x="240" y="339" as="sourcePoint" />
            <mxPoint x="210" y="232" as="targetPoint" />
          </mxGeometry>
        </mxCell>
        <mxCell id="HYIUC6LWzrxPF-WGrph0-24" style="edgeStyle=orthogonalEdgeStyle;rounded=0;orthogonalLoop=1;jettySize=auto;html=1;endArrow=block;endFill=0;endSize=16;" edge="1" parent="HYIUC6LWzrxPF-WGrph0-10" source="HYIUC6LWzrxPF-WGrph0-52" target="HYIUC6LWzrxPF-WGrph0-49">
          <mxGeometry relative="1" as="geometry">
            <Array as="points">
              <mxPoint x="250" y="133" />
              <mxPoint x="250" y="133" />
            </Array>
            <mxPoint x="320" y="339" as="sourcePoint" />
            <mxPoint x="330" y="232" as="targetPoint" />
          </mxGeometry>
        </mxCell>
        <mxCell id="HYIUC6LWzrxPF-WGrph0-29" style="edgeStyle=orthogonalEdgeStyle;rounded=0;orthogonalLoop=1;jettySize=auto;html=1;fontSize=12;fontStyle=1;verticalAlign=top;fillColor=#2a2a2a;startSize=26;" edge="1" parent="HYIUC6LWzrxPF-WGrph0-10" source="HYIUC6LWzrxPF-WGrph0-53" target="HYIUC6LWzrxPF-WGrph0-49">
          <mxGeometry relative="1" as="geometry">
            <mxPoint x="520" y="180" as="sourcePoint" />
            <mxPoint x="359.99999999999955" y="180" as="targetPoint" />
            <Array as="points">
              <mxPoint x="440" y="78" />
            </Array>
          </mxGeometry>
        </mxCell>
        <mxCell id="HYIUC6LWzrxPF-WGrph0-30" value="MyTileRenderer&lt;br&gt;1" style="edgeLabel;html=1;align=center;verticalAlign=middle;resizable=0;points=[];" vertex="1" connectable="0" parent="HYIUC6LWzrxPF-WGrph0-29">
          <mxGeometry x="0.2485" y="1" relative="1" as="geometry">
            <mxPoint x="10" y="-22" as="offset" />
          </mxGeometry>
        </mxCell>
        <mxCell id="HYIUC6LWzrxPF-WGrph0-49" value="TileBase : MonoBehaviour&lt;br&gt;&amp;lt;abstract&amp;gt;" style="html=1;fontStyle=1" vertex="1" parent="HYIUC6LWzrxPF-WGrph0-10">
          <mxGeometry x="100" y="53" width="170" height="50" as="geometry" />
        </mxCell>
        <mxCell id="HYIUC6LWzrxPF-WGrph0-53" value="TileRenderer : MonoBehaviour" style="html=1;fontStyle=1" vertex="1" parent="HYIUC6LWzrxPF-WGrph0-10">
          <mxGeometry x="340" y="90" width="200" height="50" as="geometry" />
        </mxCell>
        <mxCell id="HYIUC6LWzrxPF-WGrph0-52" value="BadTileController : TileBase" style="html=1;fontStyle=1" vertex="1" parent="HYIUC6LWzrxPF-WGrph0-10">
          <mxGeometry x="240" y="183" width="170" height="50" as="geometry" />
        </mxCell>
        <mxCell id="HYIUC6LWzrxPF-WGrph0-51" value="GoodTileController : TileBase" style="html=1;fontStyle=1" vertex="1" parent="HYIUC6LWzrxPF-WGrph0-10">
          <mxGeometry x="30" y="183" width="180" height="50" as="geometry" />
        </mxCell>
        <mxCell id="HYIUC6LWzrxPF-WGrph0-48" value="GameBoardController : MonoBehaviour" style="html=1;fontStyle=1" vertex="1" parent="HYIUC6LWzrxPF-WGrph0-4">
          <mxGeometry x="40" y="70" width="240" height="50" as="geometry" />
        </mxCell>
        <mxCell id="HYIUC6LWzrxPF-WGrph0-31" style="edgeStyle=orthogonalEdgeStyle;rounded=0;orthogonalLoop=1;jettySize=auto;html=1;endArrow=classic;endFill=1;endSize=16;" edge="1" parent="6ifigzL0VCHDWYNqE75a-1" source="HYIUC6LWzrxPF-WGrph0-48" target="HYIUC6LWzrxPF-WGrph0-0">
          <mxGeometry relative="1" as="geometry">
            <Array as="points">
              <mxPoint x="1760" y="157" />
            </Array>
            <mxPoint x="1865" y="390" as="sourcePoint" />
          </mxGeometry>
        </mxCell>
        <mxCell id="HYIUC6LWzrxPF-WGrph0-32" value="_gameBoardController&lt;br&gt;1" style="edgeLabel;html=1;align=center;verticalAlign=middle;resizable=0;points=[];" vertex="1" connectable="0" parent="HYIUC6LWzrxPF-WGrph0-31">
          <mxGeometry x="-0.0564" y="3" relative="1" as="geometry">
            <mxPoint x="-57" y="104" as="offset" />
          </mxGeometry>
        </mxCell>
        <mxCell id="HYIUC6LWzrxPF-WGrph0-33" style="edgeStyle=orthogonalEdgeStyle;rounded=0;orthogonalLoop=1;jettySize=auto;html=1;endArrow=diamondThin;endFill=1;endSize=16;startArrow=classic;startFill=1;startSize=16;" edge="1" parent="6ifigzL0VCHDWYNqE75a-1" source="HYIUC6LWzrxPF-WGrph0-46" target="HYIUC6LWzrxPF-WGrph0-0">
          <mxGeometry relative="1" as="geometry">
            <Array as="points">
              <mxPoint x="1255" y="170" />
            </Array>
            <mxPoint x="1255" y="460" as="sourcePoint" />
          </mxGeometry>
        </mxCell>
        <mxCell id="HYIUC6LWzrxPF-WGrph0-34" value="_gameBoardValidator&lt;br&gt;1" style="edgeLabel;html=1;align=center;verticalAlign=middle;resizable=0;points=[];" vertex="1" connectable="0" parent="HYIUC6LWzrxPF-WGrph0-33">
          <mxGeometry x="-0.8494" y="4" relative="1" as="geometry">
            <mxPoint x="-61" y="-12" as="offset" />
          </mxGeometry>
        </mxCell>
        <mxCell id="HYIUC6LWzrxPF-WGrph0-35" style="edgeStyle=orthogonalEdgeStyle;rounded=0;orthogonalLoop=1;jettySize=auto;html=1;endArrow=diamondThin;endFill=1;endSize=16;" edge="1" parent="6ifigzL0VCHDWYNqE75a-1" source="HYIUC6LWzrxPF-WGrph0-47" target="HYIUC6LWzrxPF-WGrph0-0">
          <mxGeometry relative="1" as="geometry">
            <mxPoint x="1355" y="635" as="sourcePoint" />
          </mxGeometry>
        </mxCell>
        <mxCell id="HYIUC6LWzrxPF-WGrph0-36" value="_gameStateMachine&lt;br&gt;1" style="edgeLabel;html=1;align=center;verticalAlign=middle;resizable=0;points=[];" vertex="1" connectable="0" parent="HYIUC6LWzrxPF-WGrph0-35">
          <mxGeometry x="-0.4682" y="-1" relative="1" as="geometry">
            <mxPoint x="-73" y="-30" as="offset" />
          </mxGeometry>
        </mxCell>
        <mxCell id="HYIUC6LWzrxPF-WGrph0-37" value="Vertical Container" style="swimlane;rounded=0;html=0;" vertex="1" parent="6ifigzL0VCHDWYNqE75a-1">
          <mxGeometry x="1120" y="250" width="330" height="250" as="geometry" />
        </mxCell>
        <mxCell id="HYIUC6LWzrxPF-WGrph0-46" value="GameBoardValidator" style="html=1;fontStyle=1" vertex="1" parent="HYIUC6LWzrxPF-WGrph0-37">
          <mxGeometry x="90" y="90" width="150" height="50" as="geometry" />
        </mxCell>
        <mxCell id="HYIUC6LWzrxPF-WGrph0-47" value="GameStateMachine" style="html=1;fontStyle=1" vertex="1" parent="HYIUC6LWzrxPF-WGrph0-37">
          <mxGeometry x="90" y="170" width="150" height="50" as="geometry" />
        </mxCell>
        <mxCell id="HYIUC6LWzrxPF-WGrph0-45" value="_gameBoardController&lt;br&gt;1" style="edgeLabel;html=1;align=center;verticalAlign=middle;resizable=0;points=[];" vertex="1" connectable="0" parent="6ifigzL0VCHDWYNqE75a-1">
          <mxGeometry x="1330.0011764705882" y="189.99529411764706" as="geometry" />
        </mxCell>
        <mxCell id="HYIUC6LWzrxPF-WGrph0-58" style="edgeStyle=orthogonalEdgeStyle;rounded=0;orthogonalLoop=1;jettySize=auto;html=1;endArrow=diamondThin;endFill=1;endSize=16;startArrow=classic;startFill=1;startSize=16;" edge="1" parent="6ifigzL0VCHDWYNqE75a-1" source="HYIUC6LWzrxPF-WGrph0-63" target="HYIUC6LWzrxPF-WGrph0-71">
          <mxGeometry relative="1" as="geometry">
            <Array as="points">
              <mxPoint x="-575" y="1035" />
            </Array>
            <mxPoint x="-440" y="900" as="targetPoint" />
          </mxGeometry>
        </mxCell>
        <mxCell id="HYIUC6LWzrxPF-WGrph0-59" value="_gameBoardValidator&lt;br&gt;1" style="edgeLabel;html=1;align=center;verticalAlign=middle;resizable=0;points=[];" vertex="1" connectable="0" parent="HYIUC6LWzrxPF-WGrph0-58">
          <mxGeometry x="-0.8494" y="4" relative="1" as="geometry">
            <mxPoint x="-61" y="-12" as="offset" />
          </mxGeometry>
        </mxCell>
        <mxCell id="HYIUC6LWzrxPF-WGrph0-60" style="edgeStyle=orthogonalEdgeStyle;rounded=0;orthogonalLoop=1;jettySize=auto;html=1;endArrow=diamondThin;endFill=1;endSize=16;" edge="1" parent="6ifigzL0VCHDWYNqE75a-1" source="HYIUC6LWzrxPF-WGrph0-66" target="HYIUC6LWzrxPF-WGrph0-71">
          <mxGeometry relative="1" as="geometry">
            <mxPoint x="-305" y="954" as="targetPoint" />
            <Array as="points">
              <mxPoint x="-350" y="1365" />
            </Array>
          </mxGeometry>
        </mxCell>
        <mxCell id="HYIUC6LWzrxPF-WGrph0-61" value="_gameStateMachine&lt;br&gt;1" style="edgeLabel;html=1;align=center;verticalAlign=middle;resizable=0;points=[];" vertex="1" connectable="0" parent="HYIUC6LWzrxPF-WGrph0-60">
          <mxGeometry x="-0.4682" y="-1" relative="1" as="geometry">
            <mxPoint x="-83" y="-20" as="offset" />
          </mxGeometry>
        </mxCell>
        <mxCell id="HYIUC6LWzrxPF-WGrph0-62" value="Vertical Container" style="swimlane;rounded=0;html=0;" vertex="1" parent="6ifigzL0VCHDWYNqE75a-1">
          <mxGeometry x="-740" y="1080" width="340" height="353" as="geometry" />
        </mxCell>
        <mxCell id="HYIUC6LWzrxPF-WGrph0-63" value="GameBoardValidator" style="swimlane;fontStyle=1;align=center;verticalAlign=top;childLayout=stackLayout;horizontal=1;startSize=26;horizontalStack=0;resizeParent=1;resizeParentMax=0;resizeLast=0;collapsible=1;marginBottom=0;rounded=0;html=0;" vertex="1" parent="HYIUC6LWzrxPF-WGrph0-62">
          <mxGeometry x="20" y="110" width="290" height="84" as="geometry" />
        </mxCell>
        <mxCell id="HYIUC6LWzrxPF-WGrph0-64" value="" style="line;strokeWidth=1;fillColor=none;align=left;verticalAlign=middle;spacingTop=-1;spacingLeft=3;spacingRight=3;rotatable=0;labelPosition=right;points=[];portConstraint=eastwest;" vertex="1" parent="HYIUC6LWzrxPF-WGrph0-63">
          <mxGeometry y="26" width="290" height="8" as="geometry" />
        </mxCell>
        <mxCell id="HYIUC6LWzrxPF-WGrph0-65" value="+ GameBoardValidator(&#xa;        gameBoardController: GameBoardController)&#xa;+ BoardIsValid(): bool" style="text;strokeColor=none;fillColor=none;align=left;verticalAlign=top;spacingLeft=4;spacingRight=4;overflow=hidden;rotatable=0;points=[[0,0.5],[1,0.5]];portConstraint=eastwest;" vertex="1" parent="HYIUC6LWzrxPF-WGrph0-63">
          <mxGeometry y="34" width="290" height="50" as="geometry" />
        </mxCell>
        <mxCell id="HYIUC6LWzrxPF-WGrph0-66" value="GameStateMachine" style="swimlane;fontStyle=1;align=center;verticalAlign=top;childLayout=stackLayout;horizontal=1;startSize=26;horizontalStack=0;resizeParent=1;resizeParentMax=0;resizeLast=0;collapsible=1;marginBottom=0;rounded=0;html=0;" vertex="1" parent="HYIUC6LWzrxPF-WGrph0-62">
          <mxGeometry x="20" y="240" width="200" height="90" as="geometry" />
        </mxCell>
        <mxCell id="HYIUC6LWzrxPF-WGrph0-67" value="+ CurrentGameState: GameState&#xa;+ NewPhase: bool" style="text;strokeColor=none;fillColor=none;align=left;verticalAlign=top;spacingLeft=4;spacingRight=4;overflow=hidden;rotatable=0;points=[[0,0.5],[1,0.5]];portConstraint=eastwest;" vertex="1" parent="HYIUC6LWzrxPF-WGrph0-66">
          <mxGeometry y="26" width="200" height="30" as="geometry" />
        </mxCell>
        <mxCell id="HYIUC6LWzrxPF-WGrph0-68" value="" style="line;strokeWidth=1;fillColor=none;align=left;verticalAlign=middle;spacingTop=-1;spacingLeft=3;spacingRight=3;rotatable=0;labelPosition=right;points=[];portConstraint=eastwest;" vertex="1" parent="HYIUC6LWzrxPF-WGrph0-66">
          <mxGeometry y="56" width="200" height="8" as="geometry" />
        </mxCell>
        <mxCell id="HYIUC6LWzrxPF-WGrph0-69" value="+ NextPhase()" style="text;strokeColor=none;fillColor=none;align=left;verticalAlign=top;spacingLeft=4;spacingRight=4;overflow=hidden;rotatable=0;points=[[0,0.5],[1,0.5]];portConstraint=eastwest;" vertex="1" parent="HYIUC6LWzrxPF-WGrph0-66">
          <mxGeometry y="64" width="200" height="26" as="geometry" />
        </mxCell>
        <mxCell id="HYIUC6LWzrxPF-WGrph0-70" value="_gameBoardController&lt;br&gt;1" style="edgeLabel;html=1;align=center;verticalAlign=middle;resizable=0;points=[];" vertex="1" connectable="0" parent="6ifigzL0VCHDWYNqE75a-1">
          <mxGeometry x="-539.9988235294118" y="1009.9952941176471" as="geometry" />
        </mxCell>
        <mxCell id="HYIUC6LWzrxPF-WGrph0-71" value="GameBoardValidator" style="html=1;fontStyle=1" vertex="1" parent="6ifigzL0VCHDWYNqE75a-1">
          <mxGeometry x="-450" y="1010" width="150" height="50" as="geometry" />
        </mxCell>
        <mxCell id="HYIUC6LWzrxPF-WGrph0-102" style="edgeStyle=orthogonalEdgeStyle;rounded=0;orthogonalLoop=1;jettySize=auto;html=1;endArrow=diamondThin;endFill=1;endSize=16;" edge="1" parent="6ifigzL0VCHDWYNqE75a-1" source="HYIUC6LWzrxPF-WGrph0-104" target="HYIUC6LWzrxPF-WGrph0-124">
          <mxGeometry relative="1" as="geometry">
            <mxPoint x="1325" y="958" as="targetPoint" />
          </mxGeometry>
        </mxCell>
        <mxCell id="HYIUC6LWzrxPF-WGrph0-103" value="Tile" style="swimlane;rounded=0;html=0;" vertex="1" parent="6ifigzL0VCHDWYNqE75a-1">
          <mxGeometry x="1060" y="997" width="750" height="483" as="geometry" />
        </mxCell>
        <mxCell id="HYIUC6LWzrxPF-WGrph0-104" value="TileBase : MonoBehaviour&#xa;&lt;abstract&gt;" style="swimlane;fontStyle=1;align=center;verticalAlign=top;childLayout=stackLayout;horizontal=1;startSize=36;horizontalStack=0;resizeParent=1;resizeParentMax=0;resizeLast=0;collapsible=1;marginBottom=0;rounded=0;html=0;" vertex="1" parent="HYIUC6LWzrxPF-WGrph0-103">
          <mxGeometry x="170" y="63" width="190" height="169" as="geometry" />
        </mxCell>
        <mxCell id="HYIUC6LWzrxPF-WGrph0-105" value="+ isSelected: bool&#xa;+ neighbours: List&lt;TileBase&gt;&#xa;+position: Vector2" style="text;strokeColor=none;fillColor=none;align=left;verticalAlign=top;spacingLeft=4;spacingRight=4;overflow=hidden;rotatable=0;points=[[0,0.5],[1,0.5]];portConstraint=eastwest;" vertex="1" parent="HYIUC6LWzrxPF-WGrph0-104">
          <mxGeometry y="36" width="190" height="60" as="geometry" />
        </mxCell>
        <mxCell id="HYIUC6LWzrxPF-WGrph0-106" value="" style="line;strokeWidth=1;fillColor=none;align=left;verticalAlign=middle;spacingTop=-1;spacingLeft=3;spacingRight=3;rotatable=0;labelPosition=right;points=[];portConstraint=eastwest;" vertex="1" parent="HYIUC6LWzrxPF-WGrph0-104">
          <mxGeometry y="96" width="190" height="8" as="geometry" />
        </mxCell>
        <mxCell id="HYIUC6LWzrxPF-WGrph0-107" value="- Awake()&#xa;+ abstract LightOn(): bool&#xa;+ abstract LightOff(): bool&#xa;+ abstract IsValid(): bool" style="text;strokeColor=none;fillColor=none;align=left;verticalAlign=top;spacingLeft=4;spacingRight=4;overflow=hidden;rotatable=0;points=[[0,0.5],[1,0.5]];portConstraint=eastwest;" vertex="1" parent="HYIUC6LWzrxPF-WGrph0-104">
          <mxGeometry y="104" width="190" height="65" as="geometry" />
        </mxCell>
        <mxCell id="HYIUC6LWzrxPF-WGrph0-108" value="TileRenderer : MonoBehaviour" style="swimlane;fontStyle=1;align=center;verticalAlign=top;childLayout=stackLayout;horizontal=1;startSize=26;horizontalStack=0;resizeParent=1;resizeParentMax=0;resizeLast=0;collapsible=1;marginBottom=0;rounded=0;html=0;" vertex="1" parent="HYIUC6LWzrxPF-WGrph0-103">
          <mxGeometry x="520" y="63" width="210" height="214" as="geometry" />
        </mxCell>
        <mxCell id="HYIUC6LWzrxPF-WGrph0-109" value="- _renderer: MeshRenderer&#xa;- _animator: Animator&#xa;- _textMesh: TextMesh&#xa;- static Color1: int" style="text;strokeColor=none;fillColor=none;align=left;verticalAlign=top;spacingLeft=4;spacingRight=4;overflow=hidden;rotatable=0;points=[[0,0.5],[1,0.5]];portConstraint=eastwest;" vertex="1" parent="HYIUC6LWzrxPF-WGrph0-108">
          <mxGeometry y="26" width="210" height="60" as="geometry" />
        </mxCell>
        <mxCell id="HYIUC6LWzrxPF-WGrph0-110" value="" style="line;strokeWidth=1;fillColor=none;align=left;verticalAlign=middle;spacingTop=-1;spacingLeft=3;spacingRight=3;rotatable=0;labelPosition=right;points=[];portConstraint=eastwest;" vertex="1" parent="HYIUC6LWzrxPF-WGrph0-108">
          <mxGeometry y="86" width="210" height="8" as="geometry" />
        </mxCell>
        <mxCell id="HYIUC6LWzrxPF-WGrph0-111" value="+ SetUp()&#xa;+ NotAllowed()&#xa;+ Allowed()&#xa;+ AddSelection()&#xa;+ RemoveSelection()&#xa;+ TurnOn()&#xa;+ TurnOff()&#xa;+ SetNumber(value: int)" style="text;strokeColor=none;fillColor=none;align=left;verticalAlign=top;spacingLeft=4;spacingRight=4;overflow=hidden;rotatable=0;points=[[0,0.5],[1,0.5]];portConstraint=eastwest;" vertex="1" parent="HYIUC6LWzrxPF-WGrph0-108">
          <mxGeometry y="94" width="210" height="120" as="geometry" />
        </mxCell>
        <mxCell id="HYIUC6LWzrxPF-WGrph0-112" style="edgeStyle=orthogonalEdgeStyle;rounded=0;orthogonalLoop=1;jettySize=auto;html=1;endArrow=block;endFill=0;endSize=16;" edge="1" parent="HYIUC6LWzrxPF-WGrph0-103" source="HYIUC6LWzrxPF-WGrph0-113" target="HYIUC6LWzrxPF-WGrph0-104">
          <mxGeometry relative="1" as="geometry">
            <Array as="points">
              <mxPoint x="210" y="289" />
              <mxPoint x="210" y="289" />
            </Array>
          </mxGeometry>
        </mxCell>
        <mxCell id="HYIUC6LWzrxPF-WGrph0-113" value="GoodTileController : TileBase" style="swimlane;fontStyle=1;align=center;verticalAlign=top;childLayout=stackLayout;horizontal=1;startSize=26;horizontalStack=0;resizeParent=1;resizeParentMax=0;resizeLast=0;collapsible=1;marginBottom=0;rounded=0;html=0;" vertex="1" parent="HYIUC6LWzrxPF-WGrph0-103">
          <mxGeometry x="20" y="293" width="230" height="160" as="geometry" />
        </mxCell>
        <mxCell id="HYIUC6LWzrxPF-WGrph0-114" value="+ event OnSelect: IsSelectedDelegate&#xa;- lightCounter: int" style="text;strokeColor=none;fillColor=none;align=left;verticalAlign=top;spacingLeft=4;spacingRight=4;overflow=hidden;rotatable=0;points=[[0,0.5],[1,0.5]];portConstraint=eastwest;" vertex="1" parent="HYIUC6LWzrxPF-WGrph0-113">
          <mxGeometry y="26" width="230" height="44" as="geometry" />
        </mxCell>
        <mxCell id="HYIUC6LWzrxPF-WGrph0-115" value="" style="line;strokeWidth=1;fillColor=none;align=left;verticalAlign=middle;spacingTop=-1;spacingLeft=3;spacingRight=3;rotatable=0;labelPosition=right;points=[];portConstraint=eastwest;" vertex="1" parent="HYIUC6LWzrxPF-WGrph0-113">
          <mxGeometry y="70" width="230" height="8" as="geometry" />
        </mxCell>
        <mxCell id="HYIUC6LWzrxPF-WGrph0-116" value="+ IsLighted(): bool&#xa;+ override LightOn(): bool&#xa;+ override LightOff(): bool&#xa;+ override IsValid(): bool&#xa;- OnMouseDown()" style="text;strokeColor=none;fillColor=none;align=left;verticalAlign=top;spacingLeft=4;spacingRight=4;overflow=hidden;rotatable=0;points=[[0,0.5],[1,0.5]];portConstraint=eastwest;" vertex="1" parent="HYIUC6LWzrxPF-WGrph0-113">
          <mxGeometry y="78" width="230" height="82" as="geometry" />
        </mxCell>
        <mxCell id="HYIUC6LWzrxPF-WGrph0-117" style="edgeStyle=orthogonalEdgeStyle;rounded=0;orthogonalLoop=1;jettySize=auto;html=1;endArrow=block;endFill=0;endSize=16;" edge="1" parent="HYIUC6LWzrxPF-WGrph0-103" source="HYIUC6LWzrxPF-WGrph0-118" target="HYIUC6LWzrxPF-WGrph0-104">
          <mxGeometry relative="1" as="geometry">
            <Array as="points">
              <mxPoint x="330" y="289" />
              <mxPoint x="330" y="289" />
            </Array>
          </mxGeometry>
        </mxCell>
        <mxCell id="HYIUC6LWzrxPF-WGrph0-118" value="BadTileController : TileBase" style="swimlane;fontStyle=1;align=center;verticalAlign=top;childLayout=stackLayout;horizontal=1;startSize=26;horizontalStack=0;resizeParent=1;resizeParentMax=0;resizeLast=0;collapsible=1;marginBottom=0;rounded=0;html=0;" vertex="1" parent="HYIUC6LWzrxPF-WGrph0-103">
          <mxGeometry x="290" y="293" width="200" height="125" as="geometry" />
        </mxCell>
        <mxCell id="HYIUC6LWzrxPF-WGrph0-119" value="- _myNumber: int" style="text;strokeColor=none;fillColor=none;align=left;verticalAlign=top;spacingLeft=4;spacingRight=4;overflow=hidden;rotatable=0;points=[[0,0.5],[1,0.5]];portConstraint=eastwest;" vertex="1" parent="HYIUC6LWzrxPF-WGrph0-118">
          <mxGeometry y="26" width="200" height="26" as="geometry" />
        </mxCell>
        <mxCell id="HYIUC6LWzrxPF-WGrph0-120" value="" style="line;strokeWidth=1;fillColor=none;align=left;verticalAlign=middle;spacingTop=-1;spacingLeft=3;spacingRight=3;rotatable=0;labelPosition=right;points=[];portConstraint=eastwest;" vertex="1" parent="HYIUC6LWzrxPF-WGrph0-118">
          <mxGeometry y="52" width="200" height="8" as="geometry" />
        </mxCell>
        <mxCell id="HYIUC6LWzrxPF-WGrph0-121" value="+ MyNumber:set(value: int)&#xa;+ override LightOn(): bool&#xa;+ override LightOff(): bool&#xa;+ override IsValid(): bool" style="text;strokeColor=none;fillColor=none;align=left;verticalAlign=top;spacingLeft=4;spacingRight=4;overflow=hidden;rotatable=0;points=[[0,0.5],[1,0.5]];portConstraint=eastwest;" vertex="1" parent="HYIUC6LWzrxPF-WGrph0-118">
          <mxGeometry y="60" width="200" height="65" as="geometry" />
        </mxCell>
        <mxCell id="HYIUC6LWzrxPF-WGrph0-122" style="edgeStyle=orthogonalEdgeStyle;rounded=0;orthogonalLoop=1;jettySize=auto;html=1;fontSize=12;fontStyle=1;verticalAlign=top;fillColor=#2a2a2a;startSize=26;" edge="1" parent="HYIUC6LWzrxPF-WGrph0-103">
          <mxGeometry relative="1" as="geometry">
            <mxPoint x="520" y="180" as="sourcePoint" />
            <mxPoint x="359.99999999999955" y="180" as="targetPoint" />
            <Array as="points">
              <mxPoint x="400" y="180" />
              <mxPoint x="400" y="180" />
            </Array>
          </mxGeometry>
        </mxCell>
        <mxCell id="HYIUC6LWzrxPF-WGrph0-123" value="MyTileRenderer&lt;br&gt;1" style="edgeLabel;html=1;align=center;verticalAlign=middle;resizable=0;points=[];" vertex="1" connectable="0" parent="HYIUC6LWzrxPF-WGrph0-122">
          <mxGeometry x="0.2485" y="1" relative="1" as="geometry">
            <mxPoint x="10" y="-22" as="offset" />
          </mxGeometry>
        </mxCell>
        <mxCell id="HYIUC6LWzrxPF-WGrph0-124" value="&lt;b&gt;GameBoardController : MonoBehaviour&lt;/b&gt;" style="html=1;" vertex="1" parent="6ifigzL0VCHDWYNqE75a-1">
          <mxGeometry x="1195" y="910" width="260" height="50" as="geometry" />
        </mxCell>
        <mxCell id="HYIUC6LWzrxPF-WGrph0-156" style="edgeStyle=orthogonalEdgeStyle;rounded=0;orthogonalLoop=1;jettySize=auto;html=1;endArrow=classic;endFill=1;endSize=16;" edge="1" parent="6ifigzL0VCHDWYNqE75a-1" source="HYIUC6LWzrxPF-WGrph0-130" target="HYIUC6LWzrxPF-WGrph0-172">
          <mxGeometry relative="1" as="geometry">
            <Array as="points">
              <mxPoint x="480" y="1460" />
              <mxPoint x="480" y="1460" />
            </Array>
            <mxPoint x="620" y="1380" as="targetPoint" />
          </mxGeometry>
        </mxCell>
        <mxCell id="HYIUC6LWzrxPF-WGrph0-157" value="_gameBoardController&lt;br&gt;1" style="edgeLabel;html=1;align=center;verticalAlign=middle;resizable=0;points=[];" vertex="1" connectable="0" parent="HYIUC6LWzrxPF-WGrph0-156">
          <mxGeometry x="-0.0564" y="3" relative="1" as="geometry">
            <mxPoint x="-67" y="35" as="offset" />
          </mxGeometry>
        </mxCell>
        <mxCell id="HYIUC6LWzrxPF-WGrph0-129" value="Board" style="swimlane;rounded=0;html=0;" vertex="1" parent="6ifigzL0VCHDWYNqE75a-1">
          <mxGeometry x="300" y="1470" width="340" height="460" as="geometry" />
        </mxCell>
        <mxCell id="HYIUC6LWzrxPF-WGrph0-130" value="GameBoardController : MonoBehaviour" style="swimlane;fontStyle=1;align=center;verticalAlign=top;childLayout=stackLayout;horizontal=1;startSize=26;horizontalStack=0;resizeParent=1;resizeParentMax=0;resizeLast=0;collapsible=1;marginBottom=0;rounded=0;html=0;" vertex="1" parent="HYIUC6LWzrxPF-WGrph0-129">
          <mxGeometry x="40" y="80" width="260" height="158" as="geometry" />
        </mxCell>
        <mxCell id="HYIUC6LWzrxPF-WGrph0-131" value="+ offset: float&#xa;+ Puzzle: Puzzle&#xa;+ baseSize: Vector2&#xa;+ TileMatrix: List&lt;List&lt;TileBase&gt;&gt;" style="text;strokeColor=none;fillColor=none;align=left;verticalAlign=top;spacingLeft=4;spacingRight=4;overflow=hidden;rotatable=0;points=[[0,0.5],[1,0.5]];portConstraint=eastwest;" vertex="1" parent="HYIUC6LWzrxPF-WGrph0-130">
          <mxGeometry y="26" width="260" height="60" as="geometry" />
        </mxCell>
        <mxCell id="HYIUC6LWzrxPF-WGrph0-132" value="" style="line;strokeWidth=1;fillColor=none;align=left;verticalAlign=middle;spacingTop=-1;spacingLeft=3;spacingRight=3;rotatable=0;labelPosition=right;points=[];portConstraint=eastwest;" vertex="1" parent="HYIUC6LWzrxPF-WGrph0-130">
          <mxGeometry y="86" width="260" height="8" as="geometry" />
        </mxCell>
        <mxCell id="HYIUC6LWzrxPF-WGrph0-133" value="+ Populate(onSelecton: IsSelectedDelegate)&#xa;- CalculateNeighbours()&#xa;+ LightOnAt(selectedTilePosition: Vector2)&#xa;+ LightOffAt(selectedTilePosition: Vector2) " style="text;strokeColor=none;fillColor=none;align=left;verticalAlign=top;spacingLeft=4;spacingRight=4;overflow=hidden;rotatable=0;points=[[0,0.5],[1,0.5]];portConstraint=eastwest;" vertex="1" parent="HYIUC6LWzrxPF-WGrph0-130">
          <mxGeometry y="94" width="260" height="64" as="geometry" />
        </mxCell>
        <mxCell id="HYIUC6LWzrxPF-WGrph0-134" style="edgeStyle=orthogonalEdgeStyle;rounded=0;orthogonalLoop=1;jettySize=auto;html=1;endArrow=diamondThin;endFill=1;endSize=16;" edge="1" parent="HYIUC6LWzrxPF-WGrph0-129" source="HYIUC6LWzrxPF-WGrph0-171" target="HYIUC6LWzrxPF-WGrph0-130">
          <mxGeometry relative="1" as="geometry">
            <mxPoint x="160.00000000000045" y="299.99999999999955" as="sourcePoint" />
            <Array as="points">
              <mxPoint x="170" y="320" />
              <mxPoint x="170" y="320" />
            </Array>
          </mxGeometry>
        </mxCell>
        <mxCell id="HYIUC6LWzrxPF-WGrph0-135" value="Tile" style="swimlane;rounded=0;html=0;" vertex="1" parent="HYIUC6LWzrxPF-WGrph0-129">
          <mxGeometry x="30" y="277" width="280" height="153" as="geometry" />
        </mxCell>
        <mxCell id="HYIUC6LWzrxPF-WGrph0-171" value="&lt;b&gt;TileBase : MonoBehaviour&lt;br&gt;&amp;lt;abstract&amp;gt;&lt;/b&gt;" style="html=1;" vertex="1" parent="HYIUC6LWzrxPF-WGrph0-135">
          <mxGeometry x="40" y="63" width="195" height="50" as="geometry" />
        </mxCell>
        <mxCell id="HYIUC6LWzrxPF-WGrph0-172" value="&lt;b&gt;TileBase : MonoBehaviour&lt;br&gt;&amp;lt;abstract&amp;gt;&lt;/b&gt;" style="html=1;" vertex="1" parent="6ifigzL0VCHDWYNqE75a-1">
          <mxGeometry x="390" y="1383" width="195" height="50" as="geometry" />
        </mxCell>
      </root>
    </mxGraphModel>
  </diagram>
</mxfile>
